<svg width="188" height="109" viewBox="0 0 188 109" fill="none" xmlns="http://www.w3.org/2000/svg">
<path d="M52.9705 39.5747C52.9705 41.8306 53.2466 43.6422 53.6755 44.9752C54.1631 46.3082 54.8093 47.7665 55.667 49.3388C56.0019 49.8458 56.1253 50.3187 56.1253 50.7345C56.1253 51.3554 55.7258 51.9536 54.9327 52.5745L50.9849 55.0981C50.4973 55.457 49.945 55.6336 49.3634 55.6621C48.7231 55.6621 48.1062 55.3659 47.4953 54.8019C46.6376 53.9417 45.9032 52.9904 45.2335 51.9536C44.5285 50.7972 43.8882 49.6123 43.3066 48.3932C38.4129 53.9702 32.2914 56.7616 24.9186 56.7616C19.6549 56.7616 15.4662 55.3089 12.4054 52.3979C9.34468 49.4585 7.78787 45.6018 7.78787 40.7369C7.78787 35.6042 9.65604 31.3886 13.4805 28.2441C17.305 25.0995 22.3514 23.5272 28.8077 23.5272C30.9167 23.5272 33.1198 23.7038 35.4168 24.0001C37.7432 24.2963 40.1283 24.8033 42.6075 25.3331V20.9125C42.6075 16.3153 41.6264 13.0795 39.6701 11.211C37.6786 9.34253 34.3182 8.41967 29.4833 8.41967C27.3096 8.41967 25.0479 8.65893 22.7215 9.18872C20.4244 9.75269 18.1627 10.4078 15.989 11.268C15.2547 11.5927 14.5203 11.832 13.786 12.0712C13.4805 12.1624 13.1456 12.2193 12.8049 12.2478C11.9178 12.2478 11.489 11.6269 11.489 10.3508V7.38288C11.489 6.43154 11.6123 5.69097 11.9178 5.27511C12.376 4.71114 12.987 4.2668 13.6626 3.99906C15.8656 2.8996 18.4682 1.98244 21.5289 1.27036C24.7424 0.467127 28.0146 0.0854499 31.2869 0.113933C38.7537 0.113933 44.1702 1.74318 47.6891 5.04155C51.1141 8.30574 52.8589 13.2618 52.8589 19.9383V39.5804L52.9705 39.5747ZM27.6034 48.8033C29.6537 48.8033 31.798 48.4445 34.0304 47.7039C36.2921 46.9918 38.2837 45.6588 39.9639 43.8472C40.9743 42.6908 41.738 41.4148 42.1081 39.9621C42.4782 38.5095 42.7191 36.7264 42.7191 34.6813V32.1292C40.8216 31.6849 38.924 31.326 36.9677 31.0924C35.0408 30.8531 33.0845 30.7335 31.093 30.7335C26.8984 30.7335 23.8435 31.5367 21.7933 33.166C19.7136 34.7952 18.7325 37.1138 18.7325 40.1387C18.7325 42.987 19.4669 45.0948 21.0295 46.5475C22.5276 48.0628 24.7248 48.8033 27.6034 48.8033ZM77.8148 55.3602C76.681 55.3602 75.9173 55.1836 75.4297 54.7393C74.9421 54.3804 74.4839 53.5202 74.1137 52.3979L59.4269 5.52007C59.1508 4.71684 58.9393 3.91931 58.8747 3.08759C58.8747 2.10777 59.3623 1.57228 60.3433 1.57228H66.4942C67.6868 1.57228 68.4857 1.74888 68.9087 2.16473C69.4316 2.52362 69.7958 3.38382 70.1659 4.54024L80.6935 44.6847L90.4514 4.54024C90.7569 3.32116 91.127 2.52362 91.6146 2.16473C92.3783 1.72039 93.236 1.50962 94.1231 1.57228H99.1108C100.303 1.57228 101.132 1.74888 101.619 2.16473C102.107 2.52362 102.565 3.38382 102.812 4.54024L112.693 45.1575L123.497 4.54024C123.896 3.32116 124.325 2.52362 124.754 2.16473C125.488 1.72039 126.346 1.50962 127.204 1.57228H133.02C134.03 1.57228 134.583 2.0451 134.583 3.08759C134.583 3.38382 134.524 3.68004 134.459 4.06742C134.365 4.57442 134.212 5.07573 134.03 5.58273L118.944 52.4321C118.574 53.6512 118.151 54.4487 117.628 54.8076C116.923 55.252 116.101 55.4627 115.272 55.4001H109.885C108.693 55.4001 107.894 55.2235 107.377 54.8076C106.889 54.3918 106.46 53.5885 106.213 52.3751L96.5141 13.2675L86.8737 52.3125C86.5682 53.5316 86.1981 54.3291 85.6811 54.745C85.1935 55.1608 84.3064 55.3374 83.1726 55.3374L77.8148 55.3602ZM158.134 56.9951C154.892 56.9951 151.649 56.6078 148.529 55.8957C145.41 55.1836 142.96 54.3804 141.338 53.4632C140.328 52.9277 139.658 52.3353 139.412 51.7713C139.165 51.2358 139.012 50.6718 139.012 50.0794V46.9918C139.012 45.7157 139.535 45.0948 140.451 45.0948C140.821 45.0948 141.215 45.1518 141.585 45.2714C141.955 45.4195 142.531 45.6588 143.148 45.8923C145.292 46.8095 147.583 47.5216 150.033 48.0001C152.542 48.5071 154.962 48.7407 157.471 48.7407C161.418 48.7407 164.479 48.0571 166.588 46.7241C168.668 45.505 169.925 43.3118 169.86 40.9704C169.89 39.3981 169.279 37.8828 168.18 36.7264C167.046 35.5985 164.908 34.5617 161.847 33.5818L152.788 30.8531C148.23 29.4575 144.834 27.4124 142.784 24.6837C140.763 22.16 139.664 19.0781 139.635 15.8709C139.635 13.3188 140.216 11.0914 141.35 9.13745C142.484 7.20628 143.982 5.52007 145.85 4.18135C147.718 2.78567 149.857 1.74887 152.336 1.03679C154.845 0.296225 157.476 0 160.232 0C161.606 0 163.046 0.0569656 164.426 0.239259C165.866 0.415856 167.181 0.655115 168.497 0.922858C169.719 1.21908 170.912 1.51531 172.046 1.8742C173.18 2.23309 174.067 2.61477 174.678 2.97366C175.412 3.33255 176.052 3.86234 176.546 4.48897C176.975 5.08143 177.157 5.79351 177.127 6.50559V9.35392C177.127 10.63 176.605 11.2851 175.688 11.2851C174.83 11.1939 174.037 10.9604 173.303 10.573C169.537 8.94376 165.437 8.14054 161.307 8.1975C157.729 8.1975 154.909 8.73299 152.982 9.88941C151.026 11.0458 150.045 12.7947 150.045 15.2898C150.045 16.9818 150.656 18.4344 151.913 19.5908C153.17 20.7473 155.491 21.9037 158.798 22.9462L167.669 25.6464C172.169 27.0421 175.441 29.0017 177.368 31.4912C179.295 33.9521 180.247 36.8005 180.247 39.9792C180.247 42.5598 179.665 44.9353 178.625 47.0089C177.492 49.054 175.994 50.8655 174.067 52.3524C172.11 53.8677 169.813 54.9329 167.123 55.7362C164.309 56.5679 161.371 57.0122 158.158 57.0122L158.134 56.9951ZM169.972 86.4526C149.381 101.201 119.514 109 93.8118 109C57.7996 109 25.3357 96.0914 0.826296 74.6149C-1.10062 72.923 0.644179 70.6102 2.97058 71.9717C29.4657 86.8685 62.1763 95.9148 95.9854 95.9148C118.809 95.9148 143.87 91.2834 166.97 81.8497C170.395 80.3059 173.332 84.0144 169.966 86.4469L169.972 86.4526ZM178.543 76.9904C175.911 73.7262 161.13 75.4182 154.463 76.2214C152.471 76.4606 152.136 74.7403 153.975 73.4642C165.725 65.4832 185.029 67.7675 187.297 70.4393C189.529 73.1965 186.656 91.9214 175.67 100.882C173.99 102.278 172.334 101.566 173.097 99.7258C175.606 93.7329 181.175 80.2261 178.543 76.9904Z" fill="#FF2E63"/>
</svg>
