<svg width="164" height="133" viewBox="0 0 164 133" fill="none" xmlns="http://www.w3.org/2000/svg">
<path fill-rule="evenodd" clip-rule="evenodd" d="M24.7302 107.756V97.5836C24.7302 96.2021 25.6413 95.1974 27.073 95.1974H27.4635C28.8952 95.1974 29.8063 96.3277 29.8063 97.5836V118.934C29.8063 124.083 27.2032 128.228 22.5175 130.865C20.3048 132.121 17.9619 132.749 15.4889 132.749H14.4476C9.11111 132.749 4.81587 130.237 2.08254 125.716C0.780952 123.581 0.130159 121.32 0.130159 118.934V117.929C0.130159 112.78 2.73333 108.636 7.41905 105.998C9.63175 104.742 11.9746 104.114 14.4476 104.114H15.4889C19.0032 104.24 22.127 105.496 24.7302 107.756ZM5.07619 118.432C5.07619 122.199 7.02857 124.962 10.4127 126.846C11.8444 127.6 13.2762 127.976 14.8381 127.976C18.6127 127.976 21.4762 126.218 23.4286 123.078C24.3397 121.571 24.7302 120.064 24.7302 118.306C24.7302 115.041 23.1683 112.529 20.4349 110.645C18.7429 109.515 16.9206 108.887 14.9683 108.887C10.8032 108.887 7.80952 110.896 5.9873 114.538C5.33651 115.794 5.07619 117.176 5.07619 118.432ZM46.9873 104.24H47.6381C53.3651 104.24 57.7905 106.877 60.5238 111.775C61.6952 113.659 62.2159 115.794 62.2159 118.055V119.059C62.2159 124.209 59.6127 128.353 54.927 130.991C52.7143 132.246 50.3714 132.874 47.8984 132.874H46.8571C41.5206 132.874 37.2254 130.363 34.4921 125.841C33.1905 123.706 32.5397 121.446 32.5397 119.059V118.055C32.5397 112.906 35.273 108.761 39.8286 106.124C42.0413 104.742 44.5143 104.24 46.9873 104.24ZM37.6159 118.432C37.6159 122.074 39.4381 124.711 42.6921 126.595C44.254 127.474 45.8159 127.851 47.6381 127.851C51.4127 127.851 54.146 125.967 56.0984 122.953C57.0095 121.446 57.4 119.939 57.4 118.18C57.4 114.789 55.7079 112.152 52.8444 110.268C51.2825 109.263 49.4603 108.761 47.6381 108.761C43.473 108.761 40.4794 110.771 38.6571 114.413C37.8762 115.794 37.6159 117.176 37.6159 118.432ZM82.9111 109.389C82.1302 109.012 80.6984 108.887 79.9175 108.887C75.7524 108.761 72.7587 111.022 70.9365 114.538C70.2857 115.794 70.0254 117.05 70.0254 118.432C70.0254 122.576 72.2381 125.465 76.0127 127.223C77.4444 127.851 79.1365 127.976 80.6984 127.976C82 127.976 83.9524 127.223 85.1238 126.595L85.3841 126.469H86.4254C87.5968 126.72 88.3778 127.348 88.3778 128.604V129.107C88.3778 131.995 82.781 132.749 80.6984 132.874C73.2794 133.377 67.6825 129.483 65.6 122.576C65.2095 121.446 65.0794 120.19 65.0794 118.934V117.929C65.0794 112.78 67.8127 108.636 72.3683 105.998C74.581 104.742 76.9238 104.114 79.3968 104.114H80.4381C83.0413 104.114 85.5143 104.868 87.727 106.249L87.9873 106.5C88.2476 106.877 88.3778 107.254 88.3778 107.756V108.259C88.3778 109.515 87.4667 110.143 86.2952 110.394H85.9048C85.254 110.394 83.5619 109.64 82.9111 109.389ZM99.0508 112.654C101.003 110.771 102.956 108.887 104.908 107.128C105.429 106.626 107.511 104.491 108.292 104.491H109.333C110.505 104.742 111.286 105.37 111.286 106.626V107.128C111.286 107.882 110.375 108.887 109.724 109.389L106.21 112.78L100.222 118.683C102.825 121.195 105.429 123.706 107.902 126.218L109.984 128.353C110.244 128.604 110.635 128.856 110.765 129.232C111.025 129.609 111.156 129.986 111.156 130.363V130.991C110.895 132.121 110.114 133 108.943 133H108.552C107.771 133 106.86 132.121 106.21 131.619C105.038 130.614 103.867 129.483 102.825 128.353L99.0508 124.711V130.488C99.0508 131.87 98.1397 132.874 96.7079 132.874H96.3175C94.8857 132.874 93.9746 131.744 93.9746 130.488V97.7092C93.9746 96.3277 94.8857 95.3229 96.3175 95.3229H96.7079C98.1397 95.3229 99.0508 96.3277 99.0508 97.7092V112.654ZM161.006 104.365H161.527C162.959 104.365 164 105.37 164 106.752C164 108.761 162.048 109.263 160.356 109.263C158.143 109.263 155.93 110.519 154.498 112.026C152.546 113.91 151.765 116.171 151.765 118.808V130.363C151.765 131.744 150.854 132.749 149.422 132.749H149.032C147.6 132.749 146.689 131.619 146.689 130.363V118.055C146.689 113.282 149.032 109.515 153.067 106.752C155.41 105.245 158.143 104.365 161.006 104.365ZM125.733 127.348C127.556 127.976 129.638 127.851 131.46 127.6C132.371 127.223 134.844 126.218 135.756 126.344H136.016C136.537 126.595 137.057 126.972 137.317 127.474C137.968 128.73 137.708 129.986 136.406 130.739L136.016 130.991C131.33 133.628 126.254 133.251 121.568 130.739C119.356 129.609 117.663 127.851 116.362 125.716L116.102 125.213C113.108 120.19 113.498 114.789 116.883 110.017C118.054 108.384 119.616 107.128 121.438 106.124L122.089 105.747C126.514 103.235 131.33 103.486 135.886 105.621C138.359 106.752 140.311 108.51 141.743 110.771L142.003 111.147C143.044 112.78 141.743 114.287 140.441 115.292C138.879 116.422 137.317 117.804 135.886 119.059C132.371 121.822 128.987 124.585 125.733 127.348ZM121.438 124.46L132.502 115.292C133.803 114.287 135.105 113.157 136.406 112.026C135.365 110.771 133.673 109.891 132.371 109.389C129.508 108.384 126.644 108.636 124.041 110.143C120.657 112.026 119.095 115.166 119.225 118.934C119.225 120.441 119.746 121.822 120.527 123.204C120.787 123.706 121.048 124.083 121.438 124.46Z" fill="#3A4D54"/>
<path fill-rule="evenodd" clip-rule="evenodd" d="M94.6254 28.3834H109.333V42.8262H116.752C120.137 42.8262 123.651 42.1983 126.905 41.1936C128.467 40.6912 130.289 39.9377 131.851 39.0585C129.768 36.4212 128.727 33.1558 128.467 29.8905C128.076 25.4948 128.987 19.7177 132.111 16.3267L133.673 14.5685L135.495 15.95C140.181 19.5921 143.956 24.4901 144.737 30.2672C150.333 28.6346 156.841 29.0113 161.787 31.7743L163.74 32.9046L162.698 34.9141C158.533 42.7007 149.813 45.2125 141.352 44.7101C128.597 75.2285 101.003 89.6714 67.4222 89.6714C50.1111 89.6714 34.2317 83.3919 25.1206 68.5722L24.9905 68.3211L23.6889 65.6837C20.5651 59.153 19.654 51.9943 20.3048 44.8357L20.5651 42.7007H33.0603V28.3834H47.7683V14.1917H77.054V0H94.6254V28.3834Z" fill="#3A4D54"/>
<path d="M142.133 33.6582C143.175 26.2483 137.448 20.4712 133.803 17.7082C129.768 22.2295 129.117 34.2861 135.495 39.3097C131.851 42.3239 124.432 45.2125 116.622 45.2125H22.6476C21.8667 52.9991 23.2984 60.1577 26.5524 66.3116L27.5937 68.1955C28.2444 69.3258 29.0254 70.3305 29.8063 71.4608C33.7111 71.712 37.2254 71.8376 40.4794 71.712C46.8571 71.5864 52.0635 70.8329 56.0984 69.577C56.7492 69.3258 57.2698 69.7026 57.5302 70.2049C57.7905 70.8329 57.4 71.3352 56.8794 71.5864C56.3587 71.712 55.8381 71.9632 55.1873 72.0888C52.0635 72.9679 48.6794 73.4703 44.3841 73.7214H43.6032C41.9111 73.847 40.0889 73.847 38.1365 73.847C36.054 73.847 34.1016 73.847 31.7587 73.7214C39.5683 82.2616 51.8032 87.2852 67.1619 87.2852C99.7016 87.2852 127.295 73.3447 139.4 42.1983C148.121 43.0774 156.451 40.9424 160.225 33.7838C154.368 30.5184 146.559 31.5231 142.133 33.6582Z" fill="#FF2E63"/>
<path d="M142.133 33.6582C143.175 26.2483 137.448 20.4712 133.803 17.7082C129.768 22.2295 129.117 34.2861 135.495 39.3097C131.851 42.3239 124.432 45.2125 116.622 45.2125H28.1143C27.7238 57.1435 32.2794 66.186 40.4794 71.5864C46.8571 71.4608 52.0635 70.7073 56.0984 69.4514C56.7492 69.2002 57.2698 69.577 57.5302 70.0793C57.7905 70.7073 57.4 71.2096 56.8794 71.4608C56.3587 71.5864 55.8381 71.8376 55.1873 71.9632C52.0635 72.8423 48.4191 73.4703 44.1238 73.7214L43.9937 73.5958C55.0571 79.1218 71.0667 78.9962 89.5492 72.2144C110.114 64.5534 129.378 49.9849 142.784 33.407C142.524 33.5326 142.394 33.6582 142.133 33.6582Z" fill="#FF2E63"/>
<path d="M22.7778 54.6317C23.2984 58.7762 24.6 62.6695 26.5524 66.3116L27.5937 68.1955C28.2444 69.3258 29.0254 70.3305 29.8063 71.4608C33.7111 71.712 37.2254 71.8376 40.4794 71.712C46.8571 71.5864 52.0635 70.8329 56.0984 69.577C56.7492 69.3258 57.2698 69.7026 57.5302 70.2049C57.7905 70.8329 57.4 71.3352 56.8794 71.5864C56.3587 71.712 55.8381 71.9632 55.1873 72.0888C52.0635 72.9679 48.4191 73.5959 44.1238 73.847H43.6032C41.9111 73.9726 40.0889 73.9726 38.2667 73.9726C36.1841 73.9726 34.1016 73.9726 31.8889 73.847C39.6984 82.3872 52.0635 87.4108 67.4222 87.4108C95.2762 87.4108 119.486 77.238 133.543 54.7573H22.7778V54.6317Z" fill="#FF2E63"/>
<path d="M29.0254 54.6317C30.7175 61.916 34.6222 67.6931 40.4794 71.5864C46.8571 71.4608 52.0635 70.7073 56.0984 69.4514C56.7492 69.2002 57.2698 69.577 57.5302 70.0793C57.7905 70.7073 57.4 71.2096 56.8794 71.4608C56.3587 71.5864 55.8381 71.8376 55.1873 71.9632C52.0635 72.8423 48.419 73.4703 43.9937 73.7214C55.0571 79.2474 71.0667 79.1218 89.419 72.3399C100.483 68.1955 111.286 62.0415 120.917 54.6317H29.0254Z" fill="#FF2E63"/>
<path fill-rule="evenodd" clip-rule="evenodd" d="M35.4032 30.644H48.1587V42.9518H35.4032V30.644ZM36.4444 31.7743H37.4857V41.9471H36.4444V31.7743ZM38.3968 31.7743H39.4381V41.9471H38.3968V31.7743ZM40.3492 31.7743H41.3905V41.9471H40.3492V31.7743ZM42.1714 31.7743H43.2127V41.9471H42.1714V31.7743ZM44.1238 31.7743H45.1651V41.9471H44.1238V31.7743ZM46.0762 31.7743H47.1175V41.9471H46.0762V31.7743ZM50.1111 16.5779H62.8667V28.7602H50.1111V16.5779ZM51.1524 17.5826H52.1937V27.7554H51.1524V17.5826ZM53.1048 17.5826H54.146V27.7554H53.1048V17.5826ZM54.927 17.5826H55.9683V27.7554H54.927V17.5826ZM56.8794 17.5826H57.9206V27.7554H56.8794V17.5826ZM58.8317 17.5826H59.873V27.7554H58.8317V17.5826ZM60.7841 17.5826H61.8254V27.7554H60.7841V17.5826Z" fill="#FF2E63"/>
<path fill-rule="evenodd" clip-rule="evenodd" d="M50.1111 30.644H62.8667V42.9518H50.1111V30.644ZM51.1524 31.7743H52.1937V41.9471H51.1524V31.7743ZM53.1048 31.7743H54.146V41.9471H53.1048V31.7743ZM54.927 31.7743H55.9683V41.9471H54.927V31.7743ZM56.8794 31.7743H57.9206V41.9471H56.8794V31.7743ZM58.8317 31.7743H59.873V41.9471H58.8317V31.7743ZM60.7841 31.7743H61.8254V41.9471H60.7841V31.7743Z" fill="#FF2E63"/>
<path fill-rule="evenodd" clip-rule="evenodd" d="M64.819 30.644H77.5746V42.9518H64.819V30.644ZM65.8603 31.7743H66.9016V41.9471H65.8603V31.7743ZM67.6825 31.7743H68.7238V41.9471H67.6825V31.7743ZM69.6349 31.7743H70.6762V41.9471H69.6349V31.7743ZM71.5873 31.7743H72.6286V41.9471H71.5873V31.7743ZM73.5397 31.7743H74.581V41.9471H73.5397V31.7743ZM75.3619 31.7743H76.4032V41.9471H75.3619V31.7743Z" fill="#FF2E63"/>
<path fill-rule="evenodd" clip-rule="evenodd" d="M64.819 16.5779H77.5746V28.7602H64.819V16.5779ZM65.8603 17.5826H66.9016V27.7554H65.8603V17.5826ZM67.6825 17.5826H68.7238V27.7554H67.6825V17.5826ZM69.6349 17.5826H70.6762V27.7554H69.6349V17.5826ZM71.5873 17.5826H72.6286V27.7554H71.5873V17.5826ZM73.5397 17.5826H74.581V27.7554H73.5397V17.5826ZM75.3619 17.5826H76.4032V27.7554H75.3619V17.5826ZM79.3968 30.644H92.1524V42.9518H79.3968V30.644ZM80.5683 31.7743H81.6095V41.9471H80.5683V31.7743ZM82.3905 31.7743H83.4317V41.9471H82.3905V31.7743ZM84.3429 31.7743H85.3841V41.9471H84.3429V31.7743ZM86.2952 31.7743H87.3365V41.9471H86.2952V31.7743ZM88.1175 31.7743H89.1587V41.9471H88.1175V31.7743ZM90.0698 31.7743H91.1111V41.9471H90.0698V31.7743Z" fill="#FF2E63"/>
<path fill-rule="evenodd" clip-rule="evenodd" d="M79.3968 16.5779H92.1524V28.7602H79.3968V16.5779ZM80.5683 17.5826H81.6095V27.7554H80.5683V17.5826ZM82.3905 17.5826H83.4317V27.7554H82.3905V17.5826ZM84.3429 17.5826H85.3841V27.7554H84.3429V17.5826ZM86.2952 17.5826H87.3365V27.7554H86.2952V17.5826ZM88.1175 17.5826H89.1587V27.7554H88.1175V17.5826ZM90.0698 17.5826H91.1111V27.7554H90.0698V17.5826Z" fill="#FF2E63"/>
<path fill-rule="evenodd" clip-rule="evenodd" d="M79.3968 2.38621H92.1524V14.694H79.3968V2.38621ZM80.5683 3.39093H81.6095V13.6893H80.5683V3.39093ZM82.3905 3.39093H83.4317V13.6893H82.3905V3.39093ZM84.3429 3.39093H85.3841V13.6893H84.3429V3.39093ZM86.2952 3.39093H87.3365V13.6893H86.2952V3.39093ZM88.1175 3.39093H89.1587V13.6893H88.1175V3.39093ZM90.0698 3.39093H91.1111V13.6893H90.0698V3.39093Z" fill="#FF2E63"/>
<path fill-rule="evenodd" clip-rule="evenodd" d="M94.1048 30.644H106.86V42.9518H94.1048V30.644ZM95.146 31.7743H96.1873V41.9471H95.146V31.7743ZM97.0984 31.7743H98.1397V41.9471H97.0984V31.7743ZM99.0508 31.7743H100.092V41.9471H99.0508V31.7743ZM100.873 31.7743H101.914V41.9471H100.873V31.7743ZM102.825 31.7743H103.867V41.9471H102.825V31.7743ZM104.778 31.7743H105.819V41.9471H104.778V31.7743Z" fill="#FF2E63"/>
<path fill-rule="evenodd" clip-rule="evenodd" d="M61.9556 62.9207C63.9079 62.9207 65.4698 64.4278 65.4698 66.3116C65.4698 68.1955 63.9079 69.7025 61.9556 69.7025C60.0032 69.7025 58.4413 68.1955 58.4413 66.3116C58.5714 64.4278 60.1333 62.9207 61.9556 62.9207Z" fill="#D4EEF1"/>
<path fill-rule="evenodd" clip-rule="evenodd" d="M61.9556 63.7998C62.2159 63.7998 62.6064 63.7998 62.8667 63.9254C62.6064 64.051 62.346 64.4278 62.346 64.8045C62.346 65.3069 62.8667 65.8093 63.3873 65.8093C63.7778 65.8093 64.1683 65.5581 64.2984 65.3069C64.4286 65.5581 64.4286 65.9348 64.4286 66.186C64.4286 67.5675 63.2571 68.5722 61.9556 68.5722C60.5238 68.5722 59.4825 67.4419 59.4825 66.186C59.4825 64.9301 60.654 63.7998 61.9556 63.7998ZM0 55.8876H163.089C159.575 55.0085 151.895 53.8782 153.067 49.3569C146.559 56.5156 131.07 54.3805 127.035 50.864C122.61 57.0179 97.0984 54.6317 95.4064 49.8593C89.9397 56.1388 72.8889 56.1388 67.4222 49.8593C65.6 54.6317 40.0889 57.0179 35.7937 50.864C31.8889 54.3805 16.2698 56.5156 9.76191 49.3569C11.1937 53.7526 3.51429 55.0085 0 55.8876Z" fill="#3A4D54"/>
<path d="M71.327 87.2852C62.6064 83.2663 57.9206 77.8659 55.1873 71.9632C51.9333 72.8423 48.0286 73.4703 43.6032 73.7214C41.9111 73.847 40.0889 73.847 38.2667 73.847C36.054 73.847 33.8413 73.847 31.4984 73.7214C39.4381 81.3824 49.3302 87.2852 67.4222 87.4108C68.7238 87.2852 70.0254 87.2852 71.327 87.2852Z" fill="#BFDBE0"/>
<path d="M58.4413 77.3635C57.2698 75.7309 56.0984 73.847 55.1873 71.9632C51.9333 72.8423 48.0286 73.4703 43.6032 73.7214C46.727 75.3541 51.1524 76.8612 58.4413 77.3635Z" fill="#D4EEF1"/>
</svg>
