<svg width="272" height="98" viewBox="0 0 272 98" fill="none" xmlns="http://www.w3.org/2000/svg">
<path fill-rule="evenodd" clip-rule="evenodd" d="M62.2011 0C61.4398 0 60.718 0.156593 60.0753 0.368455C61.4595 1.23433 62.2308 2.37654 62.6164 3.68456C62.646 3.86878 62.6955 3.98853 62.7152 4.16355C62.735 4.33856 62.7746 4.46752 62.7746 4.62412C62.8734 6.86249 62.1517 7.13883 61.6276 8.46527C61.256 9.26656 61.0971 10.1394 61.1642 11.0101C61.2313 11.8807 61.5225 12.7235 62.0132 13.4671C62.1005 13.6645 62.2099 13.8528 62.3395 14.0289C61.3013 7.5994 67.0558 6.6322 68.1236 4.63333C68.2027 2.79105 66.6405 1.71332 65.4244 0.893504C64.4594 0.326717 63.3418 0.0264777 62.2011 0.0276322V0ZM70.8723 1.44619C70.7734 2.0265 70.8426 1.87912 70.8129 2.1831L70.7536 2.84632L70.5559 3.45427C70.4956 3.66056 70.423 3.86353 70.3384 4.06222L70.0417 4.64254C69.9626 4.73465 69.9033 4.84519 69.8242 4.94652L69.6561 5.1768L69.2606 5.68343C69.0926 5.84002 68.964 6.01504 68.7663 6.144C68.5685 6.27296 68.44 6.44797 68.2521 6.57693C67.6787 6.98223 67.0261 7.28621 66.423 7.6823C66.2252 7.81126 66.0275 7.91258 65.8792 8.05076C65.7309 8.18893 65.5232 8.30868 65.365 8.45606C65.2068 8.60344 65.0388 8.76003 64.8707 8.93505C64.7026 9.11006 64.574 9.26666 64.4752 9.44168L64.0797 9.97594L63.7831 10.5563L63.5655 11.1366L63.3678 11.7814C63.3381 11.8735 63.3381 12.0117 63.3085 12.113C63.2788 12.2143 63.2788 12.3156 63.2491 12.417L63.2195 13.0618C63.2156 13.2158 63.2255 13.3698 63.2491 13.5223C63.2491 13.725 63.2788 13.9276 63.3282 14.1671C63.3777 14.4066 63.4073 14.5724 63.4667 14.7751L63.6842 15.383C63.7435 15.512 63.8226 15.6409 63.8819 15.7515L57.6134 13.4855L54.4494 12.7209L52.729 12.3525C51.0877 12.049 49.4312 11.8215 47.7656 11.6708C46.0977 11.4995 44.4209 11.4134 42.7429 11.4129L39.1834 11.5419C37.5103 11.6539 35.844 11.8414 34.1903 12.1038L32.9643 12.3064L30.5123 12.813L29.2862 13.117L28.0998 13.596L27.2099 13.9645L26.32 14.3698C26.2409 14.3974 26.1816 14.425 26.1223 14.4435L25.272 14.8488C25.0742 14.9225 24.8765 15.033 24.7282 15.1067C24.6491 15.162 24.5304 15.1988 24.481 15.2356L23.7691 15.6041C23.5219 15.7331 23.3044 15.862 23.1165 15.9726L22.5727 16.341L21.9795 16.7463L21.5148 17.1148C21.2182 17.3174 21.0798 17.4464 20.9413 17.5477L20.3481 18.082L19.8043 18.561L19.3396 19.0215C19.2803 19.0768 19.2012 19.1136 19.1418 19.1781C19.0034 19.3347 18.8452 19.4821 18.6771 19.6387L17.9455 20.3756L16.4624 21.6928C15.9802 22.0935 15.4717 22.4658 14.9397 22.8074L13.2984 23.7746C12.7412 24.0599 12.1667 24.3152 11.578 24.5391C11.0046 24.7694 10.3916 24.9721 9.79833 25.1471C8.6514 25.3774 7.4847 25.8103 6.4663 25.884C6.24878 25.884 6.0016 25.9393 5.77419 25.9577L5.08208 26.1143L4.42952 26.3446C4.212 26.4183 3.99447 26.5288 3.77695 26.6209C3.55943 26.713 3.38146 26.8512 3.18372 26.9894C2.99027 27.1199 2.80841 27.2646 2.63991 27.4223C2.44217 27.5513 2.24442 27.7263 2.09611 27.8829L1.63141 28.3895C1.49298 28.5922 1.33479 28.758 1.23591 28.9698C1.13704 29.1817 0.95907 29.3383 0.840422 29.5501L0.543803 30.2134L0.296619 30.8766L0.158197 31.4845C0.0790988 31.7885 0.0790989 32.0925 0.0593243 32.2491C0.0395497 32.4057 0 32.5807 0 32.7557C0 32.8478 2.0709e-07 32.986 0.0296622 33.0873C0.0593241 33.2715 0.0889859 33.4189 0.128535 33.5663L0.326281 34.0269C0.40538 34.2111 0.524027 34.3585 0.6229 34.5059L0.978844 34.9664L1.44355 35.3717C1.61163 35.5283 1.76983 35.6481 1.95769 35.777C2.61025 36.3113 2.77834 36.4863 3.61876 36.8824C3.75718 36.9561 3.8956 37.0114 4.0538 37.0851C4.19222 37.4535 4.25155 37.6377 4.30098 37.8496C4.35042 38.0615 4.4394 38.2825 4.5185 38.4576L4.73602 38.9181L5.13152 39.5998L5.52701 40.134L5.99171 40.613C6.1598 40.7696 6.31799 40.8894 6.50585 41.046L7.04966 41.4144C7.24081 41.5399 7.4425 41.6508 7.65278 41.746C7.85053 41.8381 8.04828 41.9487 8.27568 42.0224C8.44377 42.0961 8.63163 42.1513 8.81948 42.2066C9.00734 42.2619 9.17543 42.2987 9.28419 42.3356C9.20509 43.7173 9.18532 45.099 9.38306 45.4674C9.63025 45.9741 10.8266 44.4265 12.0329 42.6487C11.8648 44.491 11.756 46.4623 12.0329 47.0702C12.3097 47.6782 13.9708 45.7253 15.3945 43.533C34.7341 39.3695 52.3731 51.8233 54.2517 69.3986C53.8958 66.6536 50.2671 65.1338 48.6159 65.5114C47.7953 67.3905 46.4111 69.8039 44.1666 71.3146C44.3607 69.6167 44.2673 67.9008 43.8898 66.2299C43.2966 68.5696 42.1101 70.7435 40.5083 72.6318C39.2592 72.711 38.0083 72.5019 36.8666 72.0231C35.7249 71.5443 34.7275 70.8105 33.9629 69.8868C33.8641 69.8131 33.8245 69.6565 33.7454 69.5552L33.4587 68.9289C33.3796 68.7446 33.3202 68.5604 33.2906 68.3946C33.2609 68.2288 33.2609 68.0261 33.2609 67.8419V67.4735C33.2906 67.2892 33.34 67.105 33.3993 66.9392L33.5971 66.4049C33.696 66.2207 33.7948 66.0365 33.9234 65.8707C34.3881 64.6548 34.3881 63.6599 33.5279 63.0796C33.3598 62.9875 33.2016 62.8954 33.0137 62.8217C32.9149 62.7941 32.7666 62.748 32.6578 62.7296L32.4403 62.6559L31.8668 62.5269C31.6803 62.4775 31.4873 62.4527 31.2934 62.4532C31.0939 62.4221 30.8924 62.4036 30.6902 62.398C30.5518 62.398 30.4134 62.4256 30.2947 62.4256C30.0772 62.4256 29.8992 62.4532 29.7015 62.4993L29.128 62.5914L28.5546 62.7756L28.0108 63.0059L27.4966 63.2638C21.1391 67.1326 24.9259 76.1598 29.2763 78.7942C27.635 79.0706 25.974 79.4022 25.5192 79.7338C26.6364 80.4431 27.8625 81.005 29.1478 81.5761L33.5674 82.792C35.8238 83.2427 38.1358 83.4039 40.4391 83.271C52.5214 82.4788 62.4285 73.9214 64.228 62.6375L64.3961 63.3007L64.6433 64.7192C64.7026 64.9772 64.7224 65.1982 64.7421 65.4009L64.8015 66.1654L64.8608 66.9945V67.3998C64.8608 67.5287 64.8904 67.6761 64.8904 67.8051C64.8904 67.934 64.8608 68.109 64.8608 68.2656V68.6341C64.8608 68.8183 64.8311 68.9657 64.8311 69.1407C64.8311 69.2328 64.8311 69.3434 64.8015 69.4723L64.7718 70.025C64.7421 70.0987 64.7421 70.1816 64.7421 70.2553L64.663 70.8356C64.663 70.9093 64.663 70.9922 64.6334 71.0659L64.5345 71.8028V71.8489L64.3664 72.5581L64.1983 73.3227L63.7633 74.8886L63.4864 75.6992L62.8932 77.173L62.5669 77.91L62.1714 78.6192C62.1418 78.6929 62.1121 78.7482 62.0923 78.8035C60.2743 82.196 57.6299 85.1454 54.3703 87.4161C54.1528 87.5451 53.9353 87.6925 53.7178 87.849C53.6585 87.9043 53.5794 87.9227 53.52 87.978L52.9268 88.3465L53.0059 88.5031H53.0356L54.1825 88.3465H54.2121L56.3379 87.978C56.5357 87.9504 56.7334 87.9043 56.9312 87.849L57.3267 87.7754L57.9001 87.6832L58.3945 87.5543C61.0973 86.9402 63.7425 86.1238 66.3043 85.1133C61.9221 90.6766 56.094 95.111 49.3674 98C52.5167 97.8056 55.6353 97.3024 58.6713 96.4985C69.666 93.4772 78.9107 86.5871 84.4475 77.3112C83.3303 83.1789 80.8189 88.7702 77.1112 93.6522C79.761 92.0218 82.1834 90.1519 84.3981 88.0149C90.5085 82.0643 94.5227 74.5202 95.8674 66.4141C96.7968 70.4303 97.0539 74.5754 96.6584 78.6653C116.354 53.076 98.2997 26.5472 90.726 19.5558C90.6271 19.74 90.5876 20.0348 90.5678 20.348L90.291 22.0521L89.8263 23.7285L89.1737 25.359L88.353 26.9065L87.3643 28.3527L86.247 29.7344C85.8515 30.1949 85.3967 30.6002 84.9617 31.0055L84.1707 31.6503L83.5478 32.157C83.0625 32.5172 82.554 32.8494 82.0252 33.1518L80.4135 34.0177L78.6931 34.7269C78.1128 34.9316 77.5222 35.1099 76.9233 35.2612L75.0942 35.6297C74.4713 35.7218 73.8385 35.7863 73.2353 35.8323L71.9302 35.8876C71.3073 35.8876 70.6745 35.8323 70.0714 35.7955C69.4464 35.7524 68.8253 35.6693 68.2126 35.5468C67.5897 35.4546 66.9866 35.2888 66.3834 35.1138H66.3538L68.1533 34.9112L69.9824 34.5427L71.7621 34.0085C72.3554 33.8058 72.9486 33.5479 73.4825 33.2992C74.044 33.0449 74.5918 32.7652 75.1238 32.4609L76.6465 31.5398C77.1361 31.1864 77.6017 30.8049 78.0406 30.3976C78.4964 30.0084 78.9257 29.5931 79.3259 29.1541L80.4729 27.7723C80.5322 27.6987 80.5717 27.5881 80.6409 27.5144L81.4319 26.2985L82.2526 24.751L82.9051 23.1206C83.1029 22.5863 83.2314 22.0152 83.3698 21.4625L83.6467 19.7584L83.7456 18.0267L83.6961 16.8108L83.4786 15.1067L83.0831 13.4026L82.4899 11.7722C82.2723 11.2379 81.9955 10.7036 81.7285 10.2062L80.7991 8.70476L79.8104 7.30463L78.5547 6.01504L77.8428 5.37024L74.056 2.88317C73.8582 2.79105 73.7 2.69894 73.5122 2.62525C72.6223 2.09098 71.7621 1.81464 70.9217 1.55672L70.8723 1.44619Z" fill="#FF2E63"/>
<path d="M125.47 66.2207C126.103 65.9403 126.77 65.7331 127.457 65.6035C128.99 65.3733 129.86 65.1798 130.107 65.0232C130.522 64.7929 130.799 64.4705 130.938 64.1758C131.106 63.6231 131.185 62.5177 131.185 60.7399V57.3778L131.224 54.6328L131.096 50.5337V48.1111C131.096 46.4899 130.967 45.1358 130.681 44.1318C130.602 43.7449 130.226 43.358 129.642 42.9711C128.851 42.4185 127.665 41.9303 125.707 41.4236L125.668 39.5814L126.617 39.3971C126.914 39.3603 128.031 39.0839 129.979 38.6234L132.925 37.5456L133.617 37.1956C133.971 36.9151 134.344 36.6566 134.734 36.4218C135.852 35.6016 136.855 34.6547 137.72 33.6032L139.915 33.4466L139.836 37.8128C139.797 38.2365 139.797 38.5865 139.797 38.8537L139.836 40.6314C142.16 38.7892 144.236 37.4996 146.144 36.7627C148.358 35.8519 150.745 35.3663 153.164 35.3349C155.601 35.2892 157.997 35.9209 160.046 37.1495C161.984 38.347 163.309 39.7287 164.001 41.2947C164.693 42.8606 164.911 46.0846 164.911 50.8377L164.742 63.5125C164.733 64.0182 164.848 64.5192 165.079 64.9772C165.813 65.2903 166.598 65.4865 167.402 65.5575L169.439 65.9075C169.698 66.2729 169.829 66.7041 169.815 67.1418L169.775 68.413L161.608 67.8603L159.206 67.934H157.297L151.78 68.3209H150.366C150.327 67.9709 150.327 67.7406 150.327 67.5471L150.406 66.0365C150.782 65.9628 151.77 65.8522 153.313 65.6496C153.728 65.6127 154.183 65.493 154.727 65.3732C155.27 65.189 155.597 64.9495 155.676 64.7561C155.874 64.2955 156.012 63.4849 156.012 62.2414L155.933 57.2212L155.972 52.7352C155.972 47.2452 155.636 43.8462 154.984 42.5382C153.995 40.567 152.334 39.5906 150.218 39.5906C148.543 39.6271 146.898 40.0111 145.403 40.7144C143.501 41.5812 141.754 42.7152 140.222 44.0765L140.143 44.7213L140.222 47.1531L140.182 49.7323L140.35 55.95L140.271 56.9172C140.271 61.1268 140.439 63.5218 140.815 64.0652C141.191 64.6087 142.555 65.189 144.968 65.843L145.096 66.8102C145.096 67.1234 144.968 67.584 144.8 68.238L142.605 68.2748C141.688 68.2487 140.773 68.1718 139.866 68.0446L135.298 68.0077L125.678 68.284C125.563 68.0275 125.505 67.7515 125.51 67.4735L125.549 66.2391L125.47 66.2207ZM174.452 47.7426C175.193 45.5319 175.816 44.0765 176.4 43.3764C177.932 41.2578 179.593 39.6919 181.343 38.4023C183.093 37.1127 184.705 36.4311 186.109 36.0442C187.559 35.6084 189.066 35.3604 190.588 35.3073C192.708 35.2537 194.828 35.4486 196.896 35.8876C198.346 36.1726 199.724 36.7102 200.96 37.4719C202.325 38.3506 203.575 39.3737 204.687 40.5209C205.663 41.6152 206.435 42.8545 206.971 44.187C207.633 45.8029 207.984 47.5147 208.009 49.2441L203.362 49.1704C200.555 49.1104 197.75 48.9937 194.948 48.8204L191.626 48.6638L187.147 48.7006H183.538L183.459 49.6218C183.459 51.0035 183.657 52.4405 184.003 53.988C184.349 55.5355 184.913 56.8067 185.624 57.9673C186.328 59.0892 187.243 60.0845 188.324 60.9057C189.312 61.7532 190.519 62.3335 191.646 62.7204L194.048 63.4573L198.359 63.2731C199.548 63.0469 200.712 62.7232 201.84 62.3059C203.14 61.7269 204.375 61.0296 205.528 60.2241L208.059 62.0664C205.617 64.535 203.036 66.3957 200.426 67.5932C197.815 68.7907 194.869 69.2512 191.527 69.2512C189.332 69.2512 187.543 69.0947 186.139 68.6986C184.347 68.263 182.649 67.5465 181.116 66.5799C179.615 65.5849 178.282 64.3865 177.161 63.0243C175.974 61.6426 175.253 60.1228 174.719 58.6213C174.056 56.6501 173.681 55.0657 173.681 53.9051C173.659 51.856 173.858 49.8101 174.274 47.7979L174.452 47.7426ZM198.676 46.0846C198.636 44.6108 198.34 43.2659 197.766 41.9118C197.193 40.5578 196.283 39.5906 195.027 38.8721C193.943 38.1679 192.66 37.7771 191.339 37.7483C189.362 37.7483 187.81 38.522 186.277 40.0235C184.744 41.525 183.953 43.7081 183.746 46.2412L193.238 46.278L195.808 46.1583L197.549 46.0385L198.666 46.0754L198.676 46.0846ZM214.495 57.3409C215.097 57.2137 215.709 57.1366 216.325 57.1106L217.195 57.1475L217.57 57.5344L220.556 62.0203C221.505 63.0612 222.465 63.9178 223.523 64.5719C224.145 64.9587 225.144 65.4193 226.508 65.843C227.454 66.1555 228.451 66.3114 229.455 66.3036C231.106 66.3431 232.71 65.7889 233.934 64.7561C235.18 63.6784 235.911 62.5454 235.911 61.3202C235.911 60.5096 235.664 59.8096 235.219 59.2385C234.774 58.6674 233.805 58.0778 232.401 57.3962C231.709 57.1198 229.959 56.6593 227.131 56.0145L222.306 54.7433C221.03 54.2997 219.851 53.6443 218.826 52.8089C217.853 52.0273 217.062 51.068 216.503 49.9902C215.81 48.5164 215.514 47.2452 215.514 46.3057C215.514 44.3344 215.85 42.7501 216.423 41.4789C217.054 40.2232 217.94 39.0938 219.034 38.1536C219.825 37.4167 221.011 36.7719 222.643 36.1823C224.309 35.5896 226.079 35.2898 227.863 35.2981C230.198 35.2689 232.531 35.4385 234.834 35.8047C236.59 36.0809 238.294 36.5896 239.896 37.3154C240.094 37.8957 240.311 39.2866 240.637 41.4144L241.092 45.2371C241.092 45.4214 241.053 45.624 240.964 45.8175C240.371 45.9959 239.756 46.1012 239.135 46.1307C238.887 46.1307 238.472 46.0938 237.928 46.057C237.574 45.5302 237.244 44.9892 236.94 44.4358C235.615 42.1145 234.24 40.4933 232.836 39.5721C231.432 38.651 229.85 38.1444 227.893 38.1444C225.935 38.1444 224.363 38.6971 223.078 39.6919C222.607 40.0754 222.236 40.5529 221.991 41.0888C221.746 41.6247 221.634 42.2051 221.664 42.7869C221.664 43.6344 222.158 44.491 223.147 45.3661C224.136 46.2412 225.797 46.9505 228.209 47.411C231.867 48.1479 234.557 48.9217 236.257 49.6494C238.749 50.7271 240.529 52.0444 241.527 53.5182C242.526 54.992 243.06 56.6869 243.06 58.6213C243.06 61.6334 241.814 64.1481 239.372 66.1562C236.93 68.1643 233.439 69.1315 228.753 69.1315C227.159 69.0612 225.57 68.9321 223.987 68.7446C222.83 68.6249 221.456 68.3577 219.884 67.9709C218.845 67.638 217.823 67.263 216.819 66.8471C216.56 66.7073 216.334 66.5192 216.156 66.2944C216.077 66.0641 215.86 64.9772 215.613 63.052L214.921 57.3686L214.495 57.3409ZM248.666 38.7892C251.929 37.518 254.302 36.2376 255.755 35.1046C257.209 33.9716 258.781 31.8161 260.442 29.0251H262.815C263.064 29.7105 263.191 30.4293 263.19 31.1529L263.151 34.3216L263.022 36.5969L263.062 37.4812L264.011 37.518L267.907 37.3614L271.021 37.2877C271.186 37.8938 271.282 38.5144 271.308 39.1392C271.308 39.7564 271.179 40.4564 270.972 41.221C270.284 41.3164 269.59 41.3687 268.895 41.3776C268.698 41.3776 268.233 41.3776 267.571 41.3039H265.415L264.664 41.267L262.686 41.3407L262.607 56.079L262.775 61.4492C262.952 62.1882 263.292 62.8847 263.774 63.4941C264.437 63.7792 265.159 63.9239 265.89 63.9178C266.631 63.9178 267.175 63.8442 267.551 63.7336C267.926 63.6231 268.539 63.227 269.38 62.6098C269.548 62.4532 269.835 62.2966 270.171 62.0572C270.791 62.4751 271.35 62.9676 271.832 63.5218L272 63.9823C270.98 65.4386 269.546 66.6026 267.857 67.3445C266.117 68.1551 264.248 68.542 262.261 68.542C259.651 68.542 257.574 67.7682 255.953 66.2668C254.331 64.7653 253.55 62.3611 253.55 59.1556L253.718 52.3575V41.2947L252.433 41.2578L249.408 41.2947L248.864 41.1749C248.71 40.9898 248.624 40.764 248.617 40.5301L248.696 38.6878L248.666 38.7892Z" fill="#FF2E63"/>
</svg>
