<svg width="253" height="63" viewBox="0 0 253 63" fill="none" xmlns="http://www.w3.org/2000/svg">
<path d="M232.728 62.6697C232.116 62.6697 231.508 62.5282 230.972 62.2528L225.379 59.3347C224.543 58.9234 224.95 58.7764 225.227 58.6927C226.341 58.3502 226.567 58.2702 227.755 57.6784C227.88 57.617 228.042 57.6393 228.171 57.7063L232.467 59.9563C232.623 60.0326 232.844 60.0326 232.986 59.9563L249.739 51.4309C249.897 51.3528 249.996 51.1946 249.996 51.0308V33.9838C249.996 33.8163 249.897 33.6618 249.737 33.5762L232.99 25.0583C232.834 24.9802 232.629 24.9802 232.473 25.0583L215.728 33.5781C215.568 33.6618 215.464 33.8219 215.464 33.9838V51.0308C215.464 51.1946 215.568 51.349 215.728 51.4253L220.317 53.7646C222.808 54.8608 224.334 53.5693 224.334 52.2703V35.4373C224.334 35.2009 224.551 35.0129 224.819 35.0129H226.945C227.209 35.0129 227.428 35.2009 227.428 35.4373V52.2703C227.428 55.1995 225.619 56.88 222.468 56.88C221.499 56.88 220.737 56.88 218.609 55.9569L214.217 53.7274C213.13 53.1728 212.461 52.1381 212.461 51.0327V33.9857C212.461 32.8783 213.13 31.8455 214.217 31.2946L230.97 22.7581C232.03 22.2314 233.437 22.2314 234.489 22.7581L251.242 31.2946C252.327 31.8473 253 32.8802 253 33.9857V51.0327C253 52.14 252.327 53.1691 251.242 53.7274L234.489 62.2547C233.957 62.5282 233.351 62.6697 232.728 62.6697ZM237.906 50.9247C230.571 50.9247 229.037 47.9564 229.037 45.4682C229.037 45.2337 229.254 45.042 229.522 45.042H231.688C231.93 45.042 232.131 45.1946 232.169 45.4031C232.494 47.3478 233.471 48.3286 237.906 48.3286C241.433 48.3286 242.936 47.6251 242.936 45.9725C242.936 45.0197 242.51 44.3144 237.026 43.8398C232.441 43.4397 229.606 42.5482 229.606 39.3119C229.606 36.3324 232.456 34.5533 237.231 34.5533C242.598 34.5533 245.254 36.1966 245.589 39.7213C245.602 39.8404 245.553 39.9577 245.462 40.0489C245.37 40.1326 245.243 40.1847 245.108 40.1847H242.932C242.706 40.1847 242.507 40.0452 242.461 39.8516C241.937 37.8045 240.671 37.1513 237.228 37.1513C233.376 37.1513 232.929 38.3367 232.929 39.2207C232.929 40.2945 233.456 40.6072 238.659 41.2139C243.808 41.815 246.254 42.6636 246.254 45.8553C246.256 49.0804 243.212 50.9247 237.906 50.9247Z" fill="#FF2E63"/>
<path d="M198.232 39.7437C198.893 39.4031 199.3 38.7815 199.3 38.106V33.7251C199.3 33.0514 198.895 32.4298 198.232 32.0893L180.578 23.0521C179.913 22.7116 179.094 22.7097 178.427 23.0484L160.663 32.0911C160 32.4298 159.59 33.0533 159.59 33.7288V51.8106C159.59 52.4898 160.004 53.1189 160.675 53.4557L178.328 62.3235C178.978 62.6529 179.776 62.6548 180.432 62.3347L191.108 57.1015C191.448 56.934 191.659 56.6213 191.661 56.2826C191.663 55.9402 191.457 55.6238 191.121 55.4545L173.247 46.4099C172.911 46.2405 172.707 45.9279 172.707 45.591V39.9223C172.707 39.5836 172.911 39.2728 173.243 39.1053L178.809 36.2766C179.138 36.1072 179.548 36.1072 179.879 36.2766L185.445 39.1053C185.779 39.2747 185.983 39.5855 185.983 39.9223V44.3813C185.983 44.7219 186.188 45.0346 186.519 45.2021C186.853 45.3714 187.262 45.3714 187.596 45.2002L198.232 39.7437Z" fill="#FF2E63"/>
<path d="M179.239 38.8951C179.368 38.8318 179.524 38.8318 179.651 38.8951L183.06 40.6314C183.187 40.6965 183.265 40.8175 183.265 40.9459V44.4167C183.265 44.547 183.187 44.6661 183.06 44.7312L179.651 46.4657C179.524 46.5308 179.366 46.5308 179.239 46.4657L175.833 44.7312C175.704 44.6661 175.626 44.547 175.626 44.4167V40.9459C175.626 40.8175 175.704 40.6965 175.833 40.6314L179.239 38.8951Z" fill="#FF2E63"/>
<path d="M133.012 46.1158C133.012 46.2833 132.91 46.4397 132.744 46.5253L126.644 49.6257C126.477 49.7113 126.272 49.7113 126.107 49.6257L120.007 46.5253C119.841 46.4397 119.739 46.2833 119.739 46.1158V39.9037C119.739 39.7362 119.843 39.578 120.007 39.4924L126.107 36.3882C126.274 36.3008 126.479 36.3008 126.646 36.3882L132.748 39.4924C132.912 39.578 133.014 39.7362 133.014 39.9037L133.012 46.1158ZM134.66 0.118703C134.329 -0.0432066 133.924 -0.0394836 133.594 0.12987C133.267 0.301084 133.064 0.610014 133.064 0.944999V24.9802C133.064 25.2146 132.921 25.4342 132.691 25.5534C132.459 25.6706 132.172 25.6706 131.939 25.5534L127.49 23.2922C126.827 22.9554 126.01 22.9554 125.348 23.2922L107.579 32.3331C106.914 32.6718 106.505 33.2971 106.505 33.9726V52.0599C106.505 52.7355 106.914 53.359 107.577 53.6995L125.345 62.746C126.008 63.0847 126.827 63.0847 127.492 62.746L145.265 53.6995C145.927 53.359 146.337 52.7355 146.337 52.0599V6.97286C146.337 6.288 145.915 5.65525 145.237 5.32027L134.66 0.118703Z" fill="#FF2E63"/>
<path d="M72.1268 22.9516C72.7896 22.6129 73.6086 22.6129 74.2713 22.9516L92.0397 31.9906C92.7025 32.3293 93.112 32.9546 93.112 33.6302V51.7231C93.112 52.3987 92.7025 53.024 92.0397 53.3627L74.2734 62.4091C73.6107 62.746 72.7917 62.746 72.1268 62.4091L54.3648 53.3627C53.702 53.024 53.2925 52.3987 53.2925 51.7231V33.6283C53.2925 32.9546 53.702 32.3293 54.3648 31.9906L72.1268 22.9516Z" fill="#FF2E63"/>
<path d="M39.8153 33.4795C39.8153 32.7983 39.41 32.173 38.743 31.8362L20.981 22.8232C20.677 22.6669 20.3414 22.5869 20.0016 22.5757H19.8179C19.4802 22.5869 19.1425 22.6669 18.8385 22.8232L1.07438 31.8362C0.41371 32.173 0 32.7983 0 33.4795L0.037994 57.7472C0.037994 58.0859 0.238517 58.4005 0.574128 58.5642C0.903406 58.7392 1.31078 58.7392 1.64006 58.5642L12.1939 53.2343C12.8609 52.8844 13.2682 52.2684 13.2682 51.5928V40.2555C13.2682 39.578 13.6735 38.9546 14.3384 38.6159L18.8343 36.3343C19.1678 36.1612 19.5351 36.0793 19.9066 36.0793C20.2739 36.0793 20.6496 36.1612 20.9767 36.3343L25.4684 38.6159C26.1333 38.9546 26.5428 39.578 26.5428 40.2555V51.5928C26.5428 52.2684 26.9544 52.8881 27.6172 53.2343L38.171 58.5642C38.5024 58.7392 38.9161 58.7392 39.2433 58.5642C39.5704 58.3986 39.7752 58.0841 39.7752 57.7472L39.8153 33.4795Z" fill="#FF2E63"/>
</svg>
