<svg width="332" height="124" viewBox="0 0 332 124" fill="none" xmlns="http://www.w3.org/2000/svg">
<path d="M81.7386 64.48C81.7386 58.8256 75.0784 54.064 64.4827 51.088C67.2073 40.672 66.2991 32.6368 61.4553 29.6608C60.2444 29.0656 59.0334 28.768 57.5198 28.768C52.9787 28.768 46.924 32.0416 40.8693 37.696C34.8146 32.0416 29.0626 28.768 24.2188 28.768C22.7052 28.768 21.4942 29.0656 20.2833 29.6608C15.7422 32.6368 14.834 40.672 17.2559 51.088C6.96292 54.064 0 59.1232 0 64.48C0 70.1344 6.66018 74.896 17.2559 77.872C14.834 88.288 15.7422 96.6208 20.586 99.2992C21.797 99.8944 23.0079 100.192 24.5216 100.192C29.0626 100.192 35.1173 96.9184 41.172 91.264C47.2267 96.9184 52.9787 100.192 57.8225 100.192C59.3362 100.192 60.5471 99.8944 61.7581 99.2992C66.6018 96.6208 67.51 88.288 65.0881 77.872C75.0784 74.896 81.7386 69.8368 81.7386 64.48ZM57.5198 32.6368C58.428 32.6368 59.0334 32.6368 59.3362 33.232C61.7581 34.4224 62.6663 39.184 61.7581 45.4336C61.4553 46.9216 61.1526 48.7072 60.8498 50.1952C57.5198 49.3024 54.1897 49.0048 50.2541 48.4096C48.135 45.4336 46.0158 42.7552 43.5939 40.3744C49.0432 35.3152 54.1897 32.6368 57.5198 32.6368ZM52.0705 70.7296C50.8596 72.8128 49.6486 74.896 48.135 76.6816C45.7131 76.9792 43.2912 76.9792 40.8693 76.9792C38.4474 76.9792 36.0255 76.9792 33.6036 76.6816C32.3927 74.896 31.1818 72.8128 29.6681 70.7296C28.4571 68.6464 27.2462 66.5632 26.338 64.48C27.2462 62.3968 28.4571 60.3136 29.6681 58.2304C30.879 56.1472 32.3927 54.064 33.6036 51.9808C36.0255 51.6832 38.4474 51.6832 40.8693 51.6832C43.2912 51.6832 45.7131 51.6832 48.135 51.9808C49.3459 53.7664 50.8596 55.8496 52.0705 58.2304C53.2815 60.3136 54.4924 62.3968 55.4006 64.48C54.4924 66.5632 53.2815 68.6464 52.0705 70.7296ZM57.5198 68.944C58.428 71.0272 59.0334 73.1104 59.6389 74.896C57.5198 75.4912 55.4006 75.7888 53.2815 76.0864C53.8869 74.896 54.7951 73.7056 55.4006 72.5152C56.3088 71.6224 56.9143 70.1344 57.5198 68.944ZM40.8693 85.9072C39.3556 84.4192 37.8419 82.6336 36.631 80.848C38.1447 80.848 39.6584 80.848 40.8693 80.848C42.383 80.848 43.8967 80.848 45.1076 80.848C43.8967 82.6336 42.383 84.4192 40.8693 85.9072ZM28.4571 76.384C26.338 76.0864 24.2188 75.7888 22.0997 75.1936C22.7052 73.1104 23.6134 71.0272 24.2188 69.2416C24.8243 70.432 25.4298 71.6224 26.338 72.8128C27.2462 74.0032 27.8517 75.1936 28.4571 76.384ZM24.2188 60.016C23.3106 57.9328 22.7052 55.8496 21.797 53.7664C23.9161 53.1712 26.0353 52.8736 28.4571 52.576C27.5489 53.7664 26.9435 54.9568 26.0353 56.1472C25.7325 57.6352 25.1271 58.8256 24.2188 60.016ZM40.8693 43.0528C42.383 44.5408 43.5939 46.3264 45.1076 47.8144C43.5939 47.8144 42.383 47.8144 40.8693 47.8144C39.3556 47.8144 38.1447 47.8144 36.631 47.8144C38.1447 46.3264 39.6584 44.5408 40.8693 43.0528ZM55.4006 56.1472C54.4924 54.9568 53.8869 53.7664 52.9787 52.576C55.4006 52.8736 57.5198 53.1712 59.6389 53.7664C59.0334 55.8496 58.1252 57.9328 57.217 60.016C56.9143 58.8256 56.3088 57.6352 55.4006 56.1472ZM20.2833 45.136C19.3751 38.8864 20.2833 34.4224 22.7052 32.9344C23.3106 32.6368 23.9161 32.3392 24.5216 32.3392C27.8517 32.3392 32.6954 35.0176 38.1447 40.0768C36.0255 42.4576 33.6036 45.136 31.4845 48.112C27.8517 48.4096 24.2188 49.0048 20.8888 49.8976C20.586 48.4096 20.2833 46.624 20.2833 45.136ZM13.6231 72.5152C7.87112 70.1344 3.93556 66.8608 3.93556 64.48C3.93556 61.8016 7.56839 58.8256 13.3204 56.4448C14.834 55.8496 16.3477 55.2544 18.1641 54.9568C19.0723 58.2304 20.2833 61.504 22.0997 64.7776C20.586 68.0512 19.3751 71.3248 18.4669 74.3008C16.6505 73.7056 15.1368 73.1104 13.6231 72.5152ZM22.4024 96.0256C19.9805 94.8352 19.0723 90.0736 19.9805 83.824C20.2833 82.336 20.586 80.5504 20.8888 78.7648C24.2188 79.36 27.5489 79.9552 31.1818 80.2528C33.3009 83.2288 35.7228 85.9072 37.8419 88.288C32.3927 93.3472 27.5489 96.0256 24.2188 96.0256C23.6134 96.3232 23.0079 96.0256 22.4024 96.0256ZM61.7581 83.824C62.6663 90.0736 61.7581 94.5376 59.3362 96.0256C58.7307 96.3232 58.1252 96.6208 57.5198 96.6208C54.1897 96.6208 49.3459 93.9424 43.8967 88.8832C46.3185 86.5024 48.4377 83.824 50.5568 80.848C54.1897 80.5504 57.8225 79.9552 60.8498 79.36C61.1526 80.5504 61.4553 82.0384 61.7581 83.824ZM68.4182 72.5152C66.9046 73.1104 65.3909 73.7056 63.5745 74.0032C62.6663 71.0272 61.4553 67.7536 59.9416 64.48C61.4553 61.2064 62.6663 57.9328 63.8772 54.6592C65.3909 55.2544 67.2073 55.552 68.721 56.1472C74.4729 58.528 78.1058 61.504 78.1058 64.1824C77.803 66.8608 74.1702 70.1344 68.4182 72.5152Z" fill="#FF2E63"/>
<path d="M41.172 71.92C45.4103 71.92 48.7404 68.6464 48.7404 64.48C48.7404 60.3136 45.4103 57.04 41.172 57.04C36.9337 57.04 33.6036 60.3136 33.6036 64.48C33.6036 68.6464 36.9337 71.92 41.172 71.92Z" fill="#FF2E63"/>
<path d="M91.486 38.024C91.486 36.808 91.902 35.816 92.734 35.048C93.63 34.216 94.75 33.8 96.094 33.8H122.59C128.798 33.8 133.726 35.624 137.374 39.272C141.086 42.856 142.942 47.656 142.942 53.672C142.942 61.224 139.646 66.568 133.054 69.704V69.992C135.934 71.208 138.142 73.064 139.678 75.56C141.214 77.992 141.982 80.968 141.982 84.488V94.376C141.982 96.808 141.214 98.664 139.678 99.944C138.142 101.224 135.902 101.864 132.958 101.864V85.064C132.958 81.288 132.094 78.44 130.366 76.52C128.702 74.536 126.206 73.544 122.878 73.544H100.414V94.376C100.414 96.808 99.646 98.664 98.11 99.944C96.638 101.224 94.43 101.864 91.486 101.864V38.024ZM122.302 65.768C125.822 65.768 128.606 64.68 130.654 62.504C132.766 60.328 133.822 57.352 133.822 53.576C133.822 49.736 132.83 46.792 130.846 44.744C128.862 42.696 126.014 41.672 122.302 41.672H100.414V65.768H122.302ZM172.282 101.864C168.378 101.864 164.89 101.128 161.818 99.656C158.746 98.12 156.346 96.04 154.618 93.416C152.89 90.728 152.026 87.72 152.026 84.392V70.184C152.026 66.792 152.922 63.72 154.714 60.968C156.57 58.216 159.034 56.072 162.106 54.536C165.242 52.936 168.634 52.136 172.282 52.136C175.93 52.136 179.258 52.904 182.266 54.44C185.338 55.976 187.738 58.088 189.466 60.776C191.258 63.464 192.154 66.504 192.154 69.896V76.04C192.154 77.064 191.77 77.928 191.002 78.632C190.234 79.336 189.306 79.688 188.218 79.688H160.186V84.008C160.186 87.272 161.21 89.896 163.258 91.88C165.37 93.864 168.378 94.856 172.282 94.856C176.186 94.856 179.162 93.992 181.21 92.264C183.258 90.536 184.282 88.2 184.282 85.256C186.202 85.128 187.802 85.512 189.082 86.408C190.426 87.24 191.098 88.488 191.098 90.152C191.098 92.2 190.202 94.12 188.41 95.912C186.682 97.704 184.378 99.144 181.498 100.232C178.618 101.32 175.546 101.864 172.282 101.864ZM184.378 73.16V69.896C184.378 66.696 183.258 64.104 181.018 62.12C178.842 60.072 175.93 59.048 172.282 59.048C168.634 59.048 165.69 60.072 163.45 62.12C161.274 64.104 160.186 66.696 160.186 69.896V73.16H184.378ZM217.766 101.864C212.262 101.864 207.814 100.392 204.422 97.448C201.094 94.504 199.43 90.632 199.43 85.832C199.43 80.968 201.19 77.064 204.71 74.12C208.23 71.112 212.87 69.608 218.63 69.608C224.774 69.608 229.83 71.784 233.798 76.136L234.182 75.752C233.478 74.984 232.678 74.184 231.782 73.352V69.32C231.782 66.056 230.758 63.528 228.71 61.736C226.662 59.944 223.75 59.048 219.974 59.048C213.254 59.048 208.454 61.704 205.574 67.016C204.55 66.504 203.686 65.832 202.982 65C202.342 64.104 202.022 63.208 202.022 62.312C202.022 60.584 202.886 58.952 204.614 57.416C206.342 55.816 208.614 54.536 211.43 53.576C214.31 52.616 217.318 52.136 220.454 52.136C226.534 52.136 231.302 53.64 234.758 56.648C238.278 59.656 240.038 63.816 240.038 69.128V95.432C240.038 97.672 239.398 99.304 238.118 100.328C236.838 101.352 234.822 101.864 232.07 101.864V97.352C233.414 95.944 234.15 95.112 234.278 94.856L233.894 94.472C229.734 99.4 224.358 101.864 217.766 101.864ZM219.206 95.24C223.174 95.24 226.278 94.408 228.518 92.744C230.822 91.08 231.974 88.776 231.974 85.832C231.974 82.888 230.854 80.552 228.614 78.824C226.374 77.096 223.302 76.232 219.398 76.232C215.75 76.232 212.87 77.096 210.758 78.824C208.71 80.488 207.686 82.824 207.686 85.832C207.686 88.84 208.678 91.176 210.662 92.84C212.71 94.44 215.558 95.24 219.206 95.24ZM270.811 101.864C266.907 101.864 263.419 101.16 260.347 99.752C257.275 98.344 254.875 96.36 253.147 93.8C251.483 91.24 250.651 88.328 250.651 85.064V69.512C250.651 66.12 251.483 63.112 253.147 60.488C254.875 57.864 257.243 55.816 260.251 54.344C263.259 52.872 266.715 52.136 270.619 52.136C274.267 52.136 277.499 52.68 280.315 53.768C283.195 54.792 285.435 56.264 287.035 58.184C288.635 60.104 289.435 62.28 289.435 64.712C289.435 66.312 288.795 67.624 287.515 68.648C286.299 69.608 284.699 70.024 282.715 69.896C282.715 66.824 281.595 64.328 279.355 62.408C277.179 60.488 274.331 59.528 270.811 59.528C267.291 59.528 264.443 60.488 262.267 62.408C260.091 64.264 259.003 66.696 259.003 69.704V84.68C259.003 87.56 260.123 89.928 262.363 91.784C264.603 93.576 267.483 94.472 271.003 94.472C274.523 94.472 277.371 93.512 279.547 91.592C281.787 89.672 282.907 87.208 282.907 84.2C284.955 84.072 286.587 84.488 287.803 85.448C289.083 86.344 289.723 87.624 289.723 89.288C289.723 91.72 288.923 93.896 287.323 95.816C285.723 97.736 283.483 99.24 280.603 100.328C277.723 101.352 274.459 101.864 270.811 101.864ZM317.402 101.864C312.858 101.864 309.466 100.584 307.226 98.024C304.986 95.4 303.866 91.976 303.866 87.752V59.72H294.938C294.938 57.544 295.418 55.88 296.378 54.728C297.338 53.576 298.65 53 300.314 53H303.962V43.88C303.962 41.768 304.634 40.232 305.978 39.272C307.386 38.248 309.466 37.736 312.218 37.736V53H324.986C324.986 57.48 322.97 59.72 318.938 59.72H312.314V87.464C312.314 90.024 312.762 91.848 313.658 92.936C314.618 93.96 316.314 94.472 318.746 94.472C320.986 94.472 323.098 93.896 325.082 92.744C325.914 93.576 326.33 94.696 326.33 96.104C326.33 97.64 325.53 98.984 323.93 100.136C322.33 101.288 320.154 101.864 317.402 101.864Z" fill="#FF2E63"/>
</svg>
