<svg width="319" height="81" viewBox="0 0 319 81" fill="none" xmlns="http://www.w3.org/2000/svg">
<path d="M79.9025 39.5736C79.9025 33.3078 73.3919 28.0313 63.0342 24.7335C65.6976 13.1912 64.8098 4.28714 60.0748 0.989341C58.8911 0.329781 57.7073 0 56.2277 0C51.7886 0 45.8699 3.62758 39.9512 9.8934C34.0325 3.62758 28.4098 0 23.6748 0C22.1951 0 21.0114 0.329781 19.8277 0.989341C15.3886 4.28714 14.5008 13.1912 16.8683 24.7335C6.80651 28.0313 0 33.6376 0 39.5736C0 45.8394 6.51057 51.1159 16.8683 54.4137C14.5008 65.956 15.3886 75.1898 20.1236 78.1579C21.3073 78.8174 22.4911 79.1472 23.9707 79.1472C28.4098 79.1472 34.3285 75.5196 40.2472 69.2538C46.1659 75.5196 51.7886 79.1472 56.5236 79.1472C58.0033 79.1472 59.187 78.8174 60.3708 78.1579C65.1057 75.1898 65.9935 65.956 63.6261 54.4137C73.3919 51.1159 79.9025 45.5096 79.9025 39.5736ZM56.2277 4.28714C57.1155 4.28714 57.7073 4.28714 58.0033 4.9467C60.3708 6.26582 61.2586 11.5423 60.3708 18.4677C60.0748 20.1166 59.7789 22.0953 59.483 23.7442C56.2277 22.7548 52.9724 22.425 49.1252 21.7655C47.0537 18.4677 44.9821 15.4997 42.6147 12.8614C47.9415 7.25516 52.9724 4.28714 56.2277 4.28714ZM50.9008 46.499C49.7171 48.8074 48.5334 51.1159 47.0537 53.0946C44.6862 53.4244 42.3187 53.4244 39.9512 53.4244C37.5838 53.4244 35.2163 53.4244 32.8488 53.0946C31.6651 51.1159 30.4813 48.8074 29.0016 46.499C27.8179 44.1905 26.6342 41.8821 25.7464 39.5736C26.6342 37.2651 27.8179 34.9567 29.0016 32.6482C30.1854 30.3398 31.6651 28.0313 32.8488 25.7228C35.2163 25.3931 37.5838 25.3931 39.9512 25.3931C42.3187 25.3931 44.6862 25.3931 47.0537 25.7228C48.2374 27.7015 49.7171 30.01 50.9008 32.6482C52.0846 34.9567 53.2683 37.2651 54.1561 39.5736C53.2683 41.8821 52.0846 44.1905 50.9008 46.499ZM56.2277 44.5203C57.1155 46.8288 57.7073 49.1372 58.2992 51.1159C56.2277 51.7755 54.1561 52.1052 52.0846 52.435C52.6764 51.1159 53.5643 49.7968 54.1561 48.4777C55.0439 47.4883 55.6358 45.8394 56.2277 44.5203ZM39.9512 63.3178C38.4716 61.6689 36.9919 59.6902 35.8082 57.7115C37.2878 57.7115 38.7675 57.7115 39.9512 57.7115C41.4309 57.7115 42.9106 57.7115 44.0943 57.7115C42.9106 59.6902 41.4309 61.6689 39.9512 63.3178ZM27.8179 52.7648C25.7464 52.435 23.6748 52.1052 21.6033 51.4457C22.1951 49.1372 23.0829 46.8288 23.6748 44.8501C24.2667 46.1692 24.8585 47.4883 25.7464 48.8074C26.6342 50.1266 27.226 51.4457 27.8179 52.7648ZM23.6748 34.6269C22.787 32.3184 22.1951 30.01 21.3073 27.7015C23.3789 27.042 25.4504 26.7122 27.8179 26.3824C26.9301 27.7015 26.3382 29.0206 25.4504 30.3398C25.1545 31.9887 24.5626 33.3078 23.6748 34.6269ZM39.9512 15.8294C41.4309 17.4783 42.6147 19.457 44.0943 21.1059C42.6147 21.1059 41.4309 21.1059 39.9512 21.1059C38.4716 21.1059 37.2878 21.1059 35.8082 21.1059C37.2878 19.457 38.7675 17.4783 39.9512 15.8294ZM54.1561 30.3398C53.2683 29.0206 52.6765 27.7015 51.7886 26.3824C54.1561 26.7122 56.2277 27.042 58.2992 27.7015C57.7073 30.01 56.8195 32.3184 55.9317 34.6269C55.6358 33.3078 55.0439 31.9887 54.1561 30.3398ZM19.8277 18.1379C18.9398 11.2125 19.8277 6.26582 22.1951 4.61692C22.787 4.28714 23.3789 3.95736 23.9707 3.95736C27.226 3.95736 31.961 6.92538 37.2878 12.5316C35.2163 15.1699 32.8488 18.1379 30.7773 21.4357C27.226 21.7655 23.6748 22.425 20.4195 23.4144C20.1236 21.7655 19.8277 19.7868 19.8277 18.1379ZM13.3171 48.4777C7.69431 45.8394 3.84716 42.2118 3.84716 39.5736C3.84716 36.6056 7.39838 33.3078 13.0211 30.6695C14.5008 30.01 15.9805 29.3504 17.7561 29.0206C18.6439 32.6482 19.8277 36.2758 21.6033 39.9034C20.1236 43.531 18.9398 47.1585 18.052 50.4563C16.2764 49.7968 14.7968 49.1372 13.3171 48.4777ZM21.8992 74.5303C19.5317 73.2112 18.6439 67.9347 19.5317 61.0093C19.8277 59.3604 20.1236 57.3817 20.4195 55.403C23.6748 56.0626 26.9301 56.7222 30.4813 57.0519C32.5529 60.3497 34.9203 63.3178 36.9919 65.956C31.6651 71.5623 26.9301 74.5303 23.6748 74.5303C23.0829 74.8601 22.4911 74.5303 21.8992 74.5303ZM60.3708 61.0093C61.2586 67.9347 60.3708 72.8814 58.0033 74.5303C57.4114 74.8601 56.8195 75.1898 56.2277 75.1898C52.9724 75.1898 48.2374 72.2218 42.9106 66.6156C45.2781 63.9773 47.3496 61.0093 49.4212 57.7115C52.9724 57.3817 56.5236 56.7222 59.483 56.0626C59.7789 57.3817 60.0748 59.0306 60.3708 61.0093ZM66.8813 48.4777C65.4017 49.1372 63.922 49.7968 62.1464 50.1266C61.2586 46.8288 60.0748 43.2012 58.5952 39.5736C60.0748 35.946 61.2586 32.3184 62.4423 28.6909C63.922 29.3504 65.6976 29.6802 67.1773 30.3398C72.8 32.978 76.3513 36.2758 76.3513 39.2438C76.0553 42.2118 72.5041 45.8394 66.8813 48.4777Z" fill="#FF2E63"/>
<path d="M40.2471 47.8181C44.3902 47.8181 47.6455 44.1905 47.6455 39.5736C47.6455 34.9567 44.3902 31.3291 40.2471 31.3291C36.104 31.3291 32.8487 34.9567 32.8487 39.5736C32.8487 44.1905 36.104 47.8181 40.2471 47.8181Z" fill="#FF2E63"/>
<path d="M89.4309 10.2569C89.4309 8.90938 89.8375 7.81011 90.6509 6.95906C91.5267 6.0371 92.6216 5.57611 93.9354 5.57611H119.836C125.905 5.57611 130.722 7.59735 134.288 11.6398C137.917 15.6114 139.731 20.9304 139.731 27.5969C139.731 35.9655 136.509 41.8874 130.065 45.3625V45.6816C132.88 47.0291 135.039 49.0858 136.54 51.8517C138.042 54.5467 138.793 57.8445 138.793 61.7451V72.7023C138.793 75.3973 138.042 77.454 136.54 78.8724C135.039 80.2908 132.849 81 129.971 81V62.3834C129.971 58.1991 129.127 55.0431 127.438 52.9155C125.811 50.717 123.371 49.6177 120.118 49.6177H98.1583V72.7023C98.1583 75.3973 97.4076 77.454 95.9061 78.8724C94.4672 80.2908 92.3088 81 89.4309 81V10.2569ZM119.555 41.0009C122.996 41.0009 125.717 39.7952 127.719 37.3839C129.784 34.9726 130.816 31.6748 130.816 27.4905C130.816 23.2353 129.846 19.973 127.907 17.7035C125.967 15.4341 123.183 14.2993 119.555 14.2993H98.1583V41.0009H119.555Z" fill="#FF2E63"/>
<path d="M168.412 81C164.596 81 161.186 80.1844 158.183 78.5532C155.18 76.8512 152.834 74.5462 151.145 71.6385C149.456 68.6598 148.611 65.3266 148.611 61.6387V45.8944C148.611 42.1356 149.487 38.7314 151.239 35.6818C153.053 32.6323 155.462 30.2564 158.465 28.5543C161.53 26.7813 164.846 25.8948 168.412 25.8948C171.978 25.8948 175.231 26.7459 178.172 28.448C181.175 30.15 183.521 32.4904 185.21 35.4691C186.962 38.4477 187.838 41.8165 187.838 45.5752V52.3836C187.838 53.5183 187.462 54.4758 186.711 55.2559C185.961 56.036 185.054 56.4261 183.99 56.4261H156.588V61.2132C156.588 64.8301 157.589 67.7379 159.591 69.9364C161.655 72.1349 164.596 73.2342 168.412 73.2342C172.228 73.2342 175.137 72.2768 177.139 70.3619C179.141 68.4471 180.142 65.8585 180.142 62.5961C182.019 62.4543 183.583 62.8798 184.835 63.8727C186.148 64.7947 186.805 66.1776 186.805 68.0216C186.805 70.291 185.929 72.4186 184.178 74.4044C182.488 76.3902 180.236 77.9859 177.421 79.1915C174.606 80.3972 171.603 81 168.412 81ZM180.236 49.1922V45.5752C180.236 42.0292 179.141 39.1569 176.952 36.9584C174.825 34.689 171.978 33.5542 168.412 33.5542C164.846 33.5542 161.968 34.689 159.778 36.9584C157.651 39.1569 156.588 42.0292 156.588 45.5752V49.1922H180.236Z" fill="#FF2E63"/>
<path d="M212.874 81C207.494 81 203.146 79.3688 199.83 76.1065C196.576 72.8441 194.95 68.5535 194.95 63.2344C194.95 57.8445 196.67 53.5183 200.111 50.256C203.552 46.9227 208.088 45.2561 213.719 45.2561C219.725 45.2561 224.667 47.6674 228.546 52.49L228.921 52.0645C228.233 51.2134 227.451 50.3269 226.575 49.4049V44.937C226.575 41.32 225.574 38.5187 223.572 36.5329C221.57 34.5471 218.724 33.5542 215.032 33.5542C208.463 33.5542 203.771 36.4974 200.956 42.3838C199.955 41.8165 199.11 41.0718 198.422 40.1498C197.796 39.1569 197.484 38.1641 197.484 37.1712C197.484 35.2563 198.328 33.4478 200.017 31.7458C201.707 29.9727 203.928 28.5543 206.68 27.4905C209.496 26.4267 212.436 25.8948 215.502 25.8948C221.445 25.8948 226.106 27.5615 229.484 30.8947C232.925 34.228 234.646 38.8378 234.646 44.7242V73.8725C234.646 76.3547 234.02 78.1632 232.769 79.2979C231.518 80.4326 229.547 81 226.857 81V76.0001C228.17 74.4399 228.89 73.5179 229.015 73.2342L228.64 72.8087C224.573 78.2696 219.318 81 212.874 81ZM214.282 73.6597C218.16 73.6597 221.195 72.7378 223.384 70.8938C225.637 69.0499 226.763 66.4968 226.763 63.2344C226.763 59.9721 225.668 57.3835 223.478 55.4686C221.289 53.5538 218.286 52.5964 214.469 52.5964C210.903 52.5964 208.088 53.5538 206.023 55.4686C204.021 57.3126 203.02 59.9012 203.02 63.2344C203.02 66.5677 203.99 69.1563 205.93 71.0002C207.932 72.7732 210.716 73.6597 214.282 73.6597Z" fill="#FF2E63"/>
<path d="M264.728 81C260.911 81 257.502 80.2199 254.499 78.6596C251.496 77.0994 249.15 74.9008 247.46 72.064C245.834 69.2272 245.021 66.0003 245.021 62.3834V45.1497C245.021 41.3909 245.834 38.0577 247.46 35.1499C249.15 32.2422 251.464 29.9727 254.405 28.3416C257.345 26.7104 260.724 25.8948 264.54 25.8948C268.106 25.8948 271.265 26.4976 274.018 27.7033C276.833 28.838 279.023 30.4692 280.587 32.5968C282.151 34.7244 282.933 37.1357 282.933 39.8307C282.933 41.6037 282.308 43.0576 281.056 44.1923C279.868 45.2561 278.304 45.7171 276.364 45.5752C276.364 42.1711 275.269 39.4052 273.08 37.2776C270.953 35.1499 268.169 34.0861 264.728 34.0861C261.287 34.0861 258.503 35.1499 256.376 37.2776C254.248 39.3342 253.185 42.0292 253.185 45.3625V61.9579C253.185 65.1493 254.28 67.7733 256.469 69.83C258.659 71.8158 261.474 72.8087 264.915 72.8087C268.356 72.8087 271.14 71.7449 273.267 69.6173C275.457 67.4897 276.552 64.7592 276.552 61.426C278.554 61.2841 280.149 61.7451 281.338 62.8089C282.589 63.8018 283.215 65.2202 283.215 67.0641C283.215 69.7591 282.433 72.1704 280.869 74.298C279.305 76.4256 277.115 78.0923 274.3 79.2979C271.484 80.4326 268.294 81 264.728 81Z" fill="#FF2E63"/>
<path d="M310.273 81C305.831 81 302.515 79.5816 300.325 76.7448C298.135 73.837 297.041 70.0428 297.041 65.362V34.2989H288.313C288.313 31.8876 288.782 30.0437 289.721 28.7671C290.659 27.4905 291.942 26.8522 293.568 26.8522H297.134V16.7461C297.134 14.4057 297.791 12.7036 299.105 11.6398C300.482 10.5051 302.515 9.93772 305.205 9.93772V26.8522H317.686C317.686 31.8167 315.715 34.2989 311.774 34.2989H305.299V65.0429C305.299 67.8797 305.737 69.901 306.613 71.1066C307.551 72.2413 309.209 72.8087 311.586 72.8087C313.776 72.8087 315.841 72.1704 317.78 70.8938C318.593 71.8158 319 73.0569 319 74.6172C319 76.3192 318.218 77.8086 316.654 79.0852C315.09 80.3617 312.963 81 310.273 81Z" fill="#FF2E63"/>
</svg>
