<svg width="225" height="68" viewBox="0 0 225 68" fill="none" xmlns="http://www.w3.org/2000/svg">
<path fill-rule="evenodd" clip-rule="evenodd" d="M19.1286 22.6677C21.6773 7.55592 28.0557 0 38.2572 0C53.5627 0 55.4721 16.9927 63.1226 19.8302C68.2245 21.7208 72.6869 18.8898 76.5122 11.3339C73.9635 26.4425 67.5851 33.9984 57.3858 33.9984C42.0803 33.9984 40.1709 17.0057 32.5204 14.1682C27.4185 12.2776 22.9561 15.1086 19.1308 22.6645L19.1286 22.6677ZM0 56.6661C2.55311 41.5543 8.92493 33.9984 19.1286 33.9984C34.4341 33.9984 36.3435 50.9911 43.994 53.8286C49.0959 55.7192 53.5583 52.8882 57.3836 45.3322C54.8349 60.4441 48.4565 68 38.255 68C22.9495 68 21.0401 51.0073 13.3896 48.1698C8.28775 46.2792 3.82528 49.1102 0 56.6661Z" fill="url(#paint0_linear_11_63)"/>
<path fill-rule="evenodd" clip-rule="evenodd" d="M90.4382 26.1441H85.4306V21.7014H98.9406V26.1441H93.9351V46.2954H90.4382V26.1441ZM105.481 44.0221C105.018 44.8039 104.47 45.4668 103.861 45.9841C103.265 46.49 102.492 46.7429 101.544 46.7429C101.021 46.7467 100.5 46.6419 99.996 46.4316C99.5055 46.224 99.0763 45.903 98.7128 45.4684C98.3494 45.0339 98.056 44.4794 97.8414 43.7984C97.6268 43.1174 97.5129 42.3131 97.5129 41.3662C97.5129 40.1274 97.6991 39.1156 98.0735 38.3341C98.4488 37.5494 98.9539 36.9207 99.5405 36.5084C100.145 36.0706 100.824 35.7625 101.577 35.5777C102.337 35.3923 103.104 35.2775 103.874 35.2339L105.433 35.1301V34.2351C105.433 33.1325 105.229 32.3737 104.815 31.9651C104.402 31.5565 103.918 31.3489 103.361 31.3489C102.07 31.3489 101.334 32.0721 101.15 33.5217L98.172 33.1098C98.3866 31.229 98.9471 29.8669 99.8471 29.0238C100.747 28.1806 101.96 27.7656 103.482 27.7656C104.412 27.7656 105.205 27.9277 105.858 28.265C106.51 28.6022 107.036 29.0757 107.43 29.6918C107.834 30.3326 108.129 31.1061 108.292 31.9489C108.472 32.8309 108.56 33.8297 108.56 34.9323V46.2986H105.481V44.0221ZM105.411 38.2693L103.966 38.373C103.283 38.4152 102.731 38.5222 102.313 38.6843C101.894 38.8465 101.568 39.0475 101.349 39.2875C101.13 39.5275 100.97 39.8064 100.896 40.1307C100.821 40.455 100.78 40.8117 100.78 41.2008C100.78 41.7975 100.92 42.271 101.196 42.6115C101.472 42.952 101.864 43.1303 102.356 43.1303C103.197 43.1303 103.88 42.845 104.406 42.2677C104.701 41.9434 104.945 41.5348 105.128 41.0452C105.312 40.5555 105.407 39.9361 105.407 39.2032V38.2725L105.411 38.2693ZM111.205 28.3136H114.467V46.2921H111.205V28.3136ZM111.161 21.6981H114.511V26.0371H111.161V21.6981ZM117.257 21.6981H120.519V46.2921H117.257V21.6981ZM121.98 28.3136H125.518L127.22 40.2312L129.545 28.4855H132.387L134.577 40.2669L136.278 28.3493H139.679L136.138 46.3278H132.97L130.802 34.4783L128.612 46.3278H125.516L121.978 28.3493L121.98 28.3136ZM141.161 28.3136H144.424V46.2921H141.161V28.3136ZM141.117 21.6981H144.467V26.0371H141.117V21.6981ZM147.191 28.3136H150.36V30.7944C150.841 29.7405 151.411 28.9687 152.068 28.4855C152.724 28.0023 153.414 27.7623 154.126 27.7623C155.51 27.7623 156.534 28.2974 157.202 29.3643C157.87 30.4312 158.205 32.1143 158.205 34.4102V46.2921H154.945V35.0685C154.945 33.7714 154.783 32.9444 154.454 32.484C154.126 32.0235 153.694 31.7965 153.151 31.7965C152.735 31.7965 152.372 31.8937 152.068 32.0721C151.763 32.2505 151.481 32.5196 151.218 32.8634C150.999 33.1877 150.817 33.5703 150.671 34.0178C150.524 34.4745 150.449 34.9746 150.452 35.4804V46.2954H147.167V28.3168L147.191 28.3136ZM169.263 43.9183C168.854 44.8416 168.293 45.5952 167.633 46.1076C166.973 46.62 166.235 46.8744 165.49 46.8467C163.782 46.8467 162.512 45.997 161.669 44.2978C160.826 42.5985 160.412 40.2442 160.412 37.238C160.402 35.9384 160.525 34.644 160.776 33.3984C161.017 32.2375 161.36 31.2387 161.811 30.402C162.254 29.574 162.82 28.9082 163.465 28.4563C164.121 28.0023 164.855 27.7688 165.676 27.7688C166.28 27.7688 166.88 27.9309 167.478 28.2552C168.076 28.5795 168.639 29.2281 169.169 30.1166V21.7111H172.431V46.3051H169.265V43.9281L169.263 43.9183ZM169.193 37.0986C169.193 35.9506 169.127 35.0329 168.974 34.3421C168.82 33.6514 168.628 33.0936 168.334 32.6558C168.054 32.244 167.747 32.0072 167.415 31.8451C167.092 31.7201 166.76 31.6569 166.427 31.657C166.078 31.6547 165.733 31.7608 165.413 31.9683C165.094 32.1759 164.818 32.4969 164.575 32.9315C164.332 33.366 164.143 33.9432 164.005 34.6502C163.867 35.3571 163.795 36.2068 163.795 37.1991C163.795 38.2757 163.861 39.1773 164.014 39.9037C164.167 40.6301 164.327 41.2138 164.562 41.6613C164.796 42.1088 165.065 42.4299 165.376 42.6244C165.687 42.819 166.022 42.9487 166.379 42.9487C167.154 42.9487 167.791 42.6147 168.288 41.9499C168.602 41.4804 168.837 40.9084 168.974 40.2798C169.118 39.6248 169.193 38.7816 169.193 37.7504V37.0986ZM194.684 37.7861C194.605 39.0962 194.4 40.3058 194.067 41.4181C193.744 42.5079 193.277 43.4913 192.694 44.3107C192.076 45.1596 191.346 45.8099 190.55 46.2208C189.705 46.6748 188.724 46.9083 187.605 46.9083C186.348 46.9083 185.24 46.597 184.286 45.9776C183.361 45.3907 182.54 44.495 181.888 43.3606C181.242 42.2353 180.758 40.8733 180.432 39.2746C180.106 37.6758 179.944 35.9149 179.944 33.9886C179.944 31.991 180.119 30.201 180.478 28.6152C180.837 27.0294 181.349 25.6771 182.015 24.5519C182.681 23.4266 183.491 22.564 184.437 21.9673C185.383 21.3706 186.458 21.0722 187.656 21.0722C188.711 21.0722 189.633 21.2668 190.414 21.656C191.196 22.0451 191.86 22.6094 192.396 23.3423C192.933 24.0752 193.36 24.9637 193.688 25.9949C194.029 27.1035 194.271 28.2732 194.408 29.4746L190.96 30.1296C190.789 28.6833 190.456 27.545 189.974 26.7181C189.493 25.8912 188.709 25.4793 187.653 25.4793C186.318 25.4793 185.304 26.2187 184.616 27.7007C183.929 29.1827 183.576 31.2744 183.576 33.9854C183.576 36.7192 183.949 38.8497 184.684 40.2896C185.017 40.9923 185.463 41.5615 185.981 41.9464C186.499 42.3313 187.074 42.5197 187.653 42.4947C188.726 42.4947 189.515 42.0861 190.018 41.2722C190.522 40.4582 190.835 39.294 190.96 37.7763L194.684 37.7861ZM199.758 38.2725C199.834 39.7869 200.165 40.8895 200.743 41.5802C201.321 42.271 202.182 42.618 203.316 42.618C203.859 42.618 204.319 42.5304 204.691 42.3585C205.063 42.1867 205.365 41.9564 205.6 41.671C205.823 41.4033 205.995 41.0532 206.099 40.656C206.202 40.2488 206.253 39.8166 206.25 39.3816C206.25 38.733 206.09 38.1331 205.764 37.572C205.438 37.011 204.84 36.5992 203.968 36.3495L201.801 35.7657C200.925 35.5387 200.193 35.2372 199.541 34.8707C198.888 34.5043 198.341 34.0276 197.899 33.4438C197.456 32.8601 197.119 32.1402 196.887 31.2906C196.655 30.4409 196.537 29.4292 196.537 28.2585C196.522 27.1828 196.686 26.1184 197.014 25.1583C197.33 24.2673 197.785 23.5004 198.341 22.9207C198.91 22.324 199.589 21.87 200.377 21.5587C201.166 21.2474 202.041 21.0949 202.987 21.0949C204.198 21.0949 205.208 21.3025 206.016 21.7111C206.824 22.1197 207.476 22.6677 207.973 23.3488C208.47 24.0298 208.838 24.808 209.079 25.7096C209.32 26.6111 209.48 27.5353 209.561 28.4985L206.276 29.1146C206.105 27.7591 205.777 26.7797 205.291 26.1863C204.805 25.5928 204.06 25.2912 203.066 25.2912C202.475 25.2912 201.993 25.3658 201.61 25.5182C201.227 25.6707 200.923 25.862 200.69 26.102C200.477 26.3091 200.307 26.6013 200.2 26.9451C200.108 27.2694 200.06 27.6002 200.06 27.9439C200.06 28.8616 200.235 29.5524 200.585 30.0096C200.936 30.4669 201.527 30.8268 202.365 31.0798L204.647 31.7348C206.449 32.2634 207.77 33.1196 208.61 34.2967C209.451 35.4739 209.867 37.2153 209.867 39.4108C209.867 40.4874 209.731 41.4862 209.46 42.3942C209.182 43.3117 208.767 44.1242 208.247 44.7712C207.655 45.4953 206.971 46.0347 206.235 46.357C205.429 46.7364 204.483 46.9245 203.392 46.9245C201.124 46.9245 199.39 46.2111 198.188 44.7712C196.986 43.3314 196.335 41.2041 196.217 38.279H199.734L199.758 38.2725ZM214.866 38.2725C214.943 39.7869 215.273 40.8895 215.851 41.5802C216.429 42.271 217.297 42.618 218.424 42.618C218.972 42.618 219.427 42.5304 219.804 42.3585C220.18 42.1867 220.478 41.9564 220.712 41.671C220.936 41.4033 221.108 41.0532 221.212 40.656C221.315 40.2488 221.366 39.8166 221.363 39.3816C221.356 38.7098 221.182 38.0654 220.874 37.572C220.546 37.011 219.95 36.5992 219.079 36.3495L216.911 35.7657C216.035 35.5387 215.304 35.2372 214.652 34.8707C213.999 34.5043 213.452 34.0276 213.009 33.4438C212.567 32.8601 212.23 32.1402 211.995 31.2906C211.761 30.4409 211.645 29.4292 211.645 28.2585C211.631 27.1828 211.795 26.1184 212.122 25.1583C212.442 24.2632 212.884 23.5141 213.449 22.8883C214.014 22.2624 214.697 21.8376 215.486 21.5262C216.274 21.2149 217.15 21.0625 218.096 21.0625C219.307 21.0625 220.316 21.2701 221.124 21.6787C221.932 22.0873 222.582 22.6353 223.082 23.3163C223.581 23.9973 223.949 24.7756 224.187 25.6771C224.426 26.5787 224.588 27.5029 224.669 28.466L221.385 29.0822C221.214 27.7266 220.885 26.7473 220.399 26.1538C219.913 25.5604 219.169 25.2588 218.175 25.2588C217.583 25.2588 217.102 25.3334 216.719 25.4858C216.335 25.6382 216.031 25.8296 215.799 26.0695C215.585 26.2766 215.415 26.5689 215.308 26.9127C215.214 27.237 215.168 27.5677 215.168 27.9115C215.168 28.8292 215.343 29.52 215.694 29.9772C216.044 30.4345 216.635 30.7944 217.476 31.0474L219.78 31.7284C221.582 32.2569 222.902 33.1131 223.743 34.2902C224.584 35.4674 225 37.2088 225 39.4043C225.007 40.4291 224.869 41.4447 224.592 42.3845C224.315 43.3025 223.9 44.1153 223.379 44.7615C222.845 45.4425 222.175 45.9679 221.365 46.3505C220.555 46.7332 219.613 46.918 218.525 46.918C216.257 46.918 214.522 46.2046 213.318 44.7647C212.114 43.3249 211.466 41.1976 211.374 38.2725H214.866Z" fill="#FF2E63"/>
<defs>
<linearGradient id="paint0_linear_11_63" x1="-1.17493e-06" y1="-60.4311" x2="71.12" y2="174.927" gradientUnits="userSpaceOnUse">
<stop stop-color="#FF2E63"/>
<stop offset="1" stop-color="#FF2E63"/>
</linearGradient>
</defs>
</svg>
