<svg width="325" height="99" viewBox="0 0 325 99" fill="none" xmlns="http://www.w3.org/2000/svg">
<path d="M130.979 64.4561H120.355C120.355 62.3526 121.487 61.3008 123.751 61.3008H145.652C145.652 63.4043 144.52 64.4561 142.256 64.4561H135.072V85.2889C135.072 86.252 134.723 86.9869 134.027 87.4938C133.33 88.0007 132.314 88.2541 130.979 88.2541V64.4561Z" fill="#FF2E63"/>
<path d="M148.249 95.8193C146.449 95.8193 145.506 94.9069 145.419 93.0822C146.29 93.1836 146.914 93.2342 147.291 93.2342C148.568 93.2342 149.584 92.9048 150.339 92.2458C151.123 91.5869 151.921 90.4464 152.734 88.8244L153.605 87.1137L145.027 68.828C145.23 68.7519 145.491 68.6886 145.811 68.6379C146.159 68.5872 146.449 68.5619 146.682 68.5619C147.291 68.5872 147.843 68.7393 148.336 69.018C148.83 69.2715 149.178 69.6136 149.381 70.0445L155.216 83.046L154.606 84.5666L154.867 84.6806L161.486 70.0445C161.689 69.5883 162.023 69.2335 162.487 68.98C162.98 68.7012 163.532 68.5619 164.142 68.5619C164.403 68.5619 164.693 68.5872 165.012 68.6379C165.361 68.6886 165.622 68.7519 165.796 68.828L155.999 89.7748C155.041 91.8023 153.967 93.3103 152.777 94.2987C151.587 95.3124 150.078 95.8193 148.249 95.8193Z" fill="#FF2E63"/>
<path d="M169.714 71.261C169.714 70.4246 170.005 69.7657 170.585 69.2842C171.195 68.8026 172.109 68.5619 173.328 68.5619V70.6907L172.458 71.6792L172.588 71.8312C173.488 70.8175 174.518 70.0191 175.68 69.4362C176.841 68.8533 178.219 68.5619 179.816 68.5619C182.312 68.5619 184.33 69.1701 185.868 70.3866C187.407 71.5778 188.176 73.1745 188.176 75.1766V81.6774C188.176 83.6796 187.378 85.2762 185.781 86.4674C184.185 87.6586 182.109 88.2541 179.555 88.2541C178.19 88.2541 176.928 88.0134 175.767 87.5318C174.635 87.025 173.633 86.366 172.762 85.555L172.632 85.7451C172.835 85.9985 173.14 86.2773 173.546 86.5814V93.2723C173.546 94.9956 172.269 95.8573 169.714 95.8573V71.261ZM178.989 85.3269C180.701 85.3269 182.037 84.9974 182.994 84.3385C183.952 83.6542 184.431 82.7165 184.431 81.5253V75.3287C184.431 74.0868 183.952 73.1364 182.994 72.4775C182.037 71.8186 180.687 71.4891 178.945 71.4891C177.407 71.4891 176.115 71.8439 175.07 72.5535C174.025 73.2378 173.503 74.0995 173.503 75.1386V81.7154C173.503 82.7292 173.996 83.5908 174.983 84.3005C175.97 84.9848 177.305 85.3269 178.989 85.3269Z" fill="#FF2E63"/>
<path d="M202.575 88.2541C200.805 88.2541 199.223 87.9627 197.829 87.3798C196.436 86.7715 195.348 85.9478 194.564 84.9087C193.78 83.8443 193.388 82.6531 193.388 81.3352V75.7089C193.388 74.3656 193.795 73.1491 194.607 72.0593C195.449 70.9695 196.567 70.1205 197.96 69.5123C199.382 68.8787 200.921 68.5619 202.575 68.5619C204.23 68.5619 205.739 68.866 207.104 69.4742C208.497 70.0825 209.585 70.9188 210.369 71.9833C211.182 73.0477 211.588 74.2516 211.588 75.5948V78.0278C211.588 78.4333 211.414 78.7755 211.066 79.0543C210.718 79.3331 210.297 79.4724 209.803 79.4724H197.089V81.1832C197.089 82.4757 197.554 83.5148 198.483 84.3005C199.44 85.0861 200.805 85.479 202.575 85.479C204.346 85.479 205.696 85.1368 206.625 84.4525C207.554 83.7683 208.018 82.8432 208.018 81.6774C208.889 81.6267 209.615 81.7788 210.195 82.1336C210.805 82.463 211.109 82.9572 211.109 83.6162C211.109 84.4272 210.703 85.1875 209.89 85.8972C209.107 86.6068 208.062 87.177 206.755 87.6079C205.449 88.0387 204.056 88.2541 202.575 88.2541ZM208.062 76.8874V75.5948C208.062 74.3276 207.554 73.3012 206.538 72.5155C205.551 71.7045 204.23 71.299 202.575 71.299C200.921 71.299 199.586 71.7045 198.57 72.5155C197.583 73.3012 197.089 74.3276 197.089 75.5948V76.8874H208.062Z" fill="#FF2E63"/>
<path d="M224.496 88.2541C223.015 88.2541 221.622 88.0641 220.316 87.6839C219.009 87.2784 217.95 86.7082 217.137 85.9732C216.353 85.2382 215.962 84.3765 215.962 83.3881C215.962 82.1716 216.803 81.5126 218.487 81.4113C218.777 82.8305 219.459 83.8823 220.533 84.5666C221.636 85.2255 223.03 85.555 224.713 85.555C226.397 85.555 227.703 85.3396 228.632 84.9087C229.561 84.4779 230.025 83.8189 230.025 82.9319C230.025 82.2983 229.837 81.7914 229.459 81.4113C229.082 81.0058 228.472 80.6636 227.631 80.3848C226.818 80.0807 225.642 79.7892 224.104 79.5105C222.188 79.1303 220.664 78.7248 219.532 78.294C218.4 77.8631 217.529 77.2929 216.919 76.5832C216.339 75.8736 216.049 74.9359 216.049 73.77C216.049 72.7816 216.397 71.8946 217.094 71.1089C217.79 70.2979 218.748 69.677 219.967 69.2461C221.215 68.79 222.623 68.5619 224.191 68.5619C225.642 68.5619 227.006 68.7393 228.284 69.0941C229.59 69.4489 230.635 69.9558 231.419 70.6147C232.231 71.2737 232.638 72.034 232.638 72.8957C232.638 73.4786 232.377 73.9475 231.854 74.3023C231.332 74.6317 230.606 74.8218 229.677 74.8725C229.59 73.7574 229.067 72.883 228.11 72.2494C227.181 71.5905 225.874 71.261 224.191 71.261C222.797 71.261 221.694 71.4891 220.882 71.9453C220.069 72.4015 219.663 73.0097 219.663 73.77C219.663 74.5811 220.04 75.1893 220.795 75.5948C221.578 75.975 222.899 76.3425 224.757 76.6973C227.805 77.2295 230.04 77.9645 231.462 78.9022C232.914 79.8146 233.639 81.1198 233.639 82.8179C233.639 84.5412 232.841 85.8845 231.244 86.8476C229.648 87.7853 227.398 88.2541 224.496 88.2541Z" fill="#FF2E63"/>
<path d="M247.349 88.2541C245.578 88.2541 243.996 87.9754 242.603 87.4178C241.209 86.8602 240.121 86.0746 239.337 85.0608C238.582 84.047 238.205 82.8939 238.205 81.6013V75.4427C238.205 74.0995 238.582 72.9083 239.337 71.8692C240.121 70.8301 241.195 70.0191 242.559 69.4362C243.923 68.8533 245.491 68.5619 247.261 68.5619C248.916 68.5619 250.382 68.7773 251.659 69.2081C252.965 69.6136 253.981 70.1965 254.707 70.9569C255.433 71.7172 255.796 72.5789 255.796 73.542C255.796 74.1756 255.505 74.6951 254.925 75.1006C254.373 75.4808 253.647 75.6455 252.748 75.5948C252.748 74.3783 252.24 73.3899 251.224 72.6296C250.237 71.8692 248.945 71.4891 247.349 71.4891C245.752 71.4891 244.46 71.8692 243.473 72.6296C242.486 73.3645 241.993 74.3276 241.993 75.5188V81.4493C241.993 82.5898 242.501 83.5275 243.517 84.2625C244.533 84.9721 245.839 85.3269 247.436 85.3269C249.032 85.3269 250.324 84.9467 251.311 84.1864C252.327 83.4261 252.835 82.4504 252.835 81.2592C253.764 81.2085 254.504 81.3732 255.055 81.7534C255.636 82.1082 255.926 82.6151 255.926 83.274C255.926 84.2371 255.563 85.0988 254.838 85.8591C254.112 86.6195 253.096 87.215 251.79 87.6459C250.483 88.0514 249.003 88.2541 247.349 88.2541Z" fill="#FF2E63"/>
<path d="M270.37 71.4891C268.744 71.4891 267.394 71.9199 266.32 72.7816C265.246 73.618 264.709 74.6444 264.709 75.8609V85.8211C264.709 86.6575 264.39 87.2784 263.751 87.6839C263.142 88.0641 262.198 88.2541 260.921 88.2541V71.375C260.921 69.4996 262.14 68.5619 264.579 68.5619V70.8808C264.114 71.3117 263.795 71.6918 263.621 72.0213L263.795 72.1734C265.653 69.7657 267.975 68.5619 270.761 68.5619C271.806 68.5619 272.605 68.79 273.156 69.2461C273.708 69.677 273.983 70.2092 273.983 70.8428C273.983 71.299 273.853 71.7045 273.592 72.0593C272.779 71.6792 271.705 71.4891 270.37 71.4891Z" fill="#FF2E63"/>
<path d="M280.335 65.7107C279.523 65.7107 278.84 65.4826 278.289 65.0264C277.737 64.5702 277.462 63.9999 277.462 63.3156C277.462 62.6314 277.737 62.0738 278.289 61.6429C278.84 61.1868 279.523 60.9587 280.335 60.9587C281.119 60.9587 281.787 61.1868 282.338 61.6429C282.89 62.0738 283.166 62.6314 283.166 63.3156C283.166 63.9999 282.89 64.5702 282.338 65.0264C281.787 65.4826 281.119 65.7107 280.335 65.7107ZM278.42 70.9949C278.42 70.1585 278.724 69.5503 279.334 69.1701C279.973 68.7646 280.93 68.5619 282.208 68.5619V85.8211C282.208 86.6575 281.888 87.2784 281.25 87.6839C280.64 88.0641 279.697 88.2541 278.42 88.2541V70.9949Z" fill="#FF2E63"/>
<path d="M289.282 71.261C289.282 70.4246 289.573 69.7657 290.153 69.2842C290.763 68.8026 291.677 68.5619 292.896 68.5619V70.6907L292.025 71.6792L292.156 71.8312C293.056 70.8175 294.086 70.0191 295.247 69.4362C296.409 68.8533 297.787 68.5619 299.384 68.5619C301.88 68.5619 303.898 69.1701 305.436 70.3866C306.975 71.5778 307.744 73.1745 307.744 75.1766V81.6774C307.744 83.6796 306.946 85.2762 305.349 86.4674C303.753 87.6586 301.677 88.2541 299.123 88.2541C297.758 88.2541 296.496 88.0134 295.335 87.5318C294.203 87.025 293.201 86.366 292.33 85.555L292.2 85.7451C292.403 85.9985 292.708 86.2773 293.114 86.5814V93.2723C293.114 94.9956 291.837 95.8573 289.282 95.8573V71.261ZM298.557 85.3269C300.269 85.3269 301.604 84.9974 302.562 84.3385C303.52 83.6542 303.999 82.7165 303.999 81.5253V75.3287C303.999 74.0868 303.52 73.1364 302.562 72.4775C301.604 71.8186 300.255 71.4891 298.513 71.4891C296.975 71.4891 295.683 71.8439 294.638 72.5535C293.593 73.2378 293.07 74.0995 293.07 75.1386V81.7154C293.07 82.7292 293.564 83.5908 294.551 84.3005C295.538 84.9848 296.873 85.3269 298.557 85.3269Z" fill="#FF2E63"/>
<path d="M320.951 88.2541C318.89 88.2541 317.351 87.7473 316.335 86.7335C315.319 85.6944 314.811 84.3385 314.811 82.6658V71.5651H310.762C310.762 70.7034 310.98 70.0445 311.415 69.5883C311.851 69.1321 312.446 68.904 313.2 68.904H314.855V65.2925C314.855 64.4561 315.16 63.8479 315.769 63.4677C316.408 63.0622 317.351 62.8595 318.599 62.8595V68.904H324.39C324.39 70.6781 323.476 71.5651 321.647 71.5651H318.643V82.5517C318.643 83.5655 318.846 84.2878 319.253 84.7187C319.688 85.1242 320.457 85.3269 321.56 85.3269C322.576 85.3269 323.534 85.0988 324.434 84.6426C324.811 84.9721 325 85.4156 325 85.9732C325 86.5814 324.637 87.1137 323.911 87.5699C323.186 88.026 322.199 88.2541 320.951 88.2541Z" fill="#FF2E63"/>
<path d="M0 99H113.388V0H0V99ZM91.3728 45.54C94.0886 46.0903 96.5569 47.3304 98.4664 49.104C99.5176 50.0595 100.431 51.1234 101.188 52.272C101.188 52.3987 96.2893 55.2895 93.3049 56.9052C93.1961 56.9686 92.7607 56.5567 92.2799 55.931C91.7351 55.1103 90.961 54.4234 90.0299 53.9345C89.0988 53.4456 88.041 53.1706 86.9552 53.1353C83.5173 52.9294 81.3039 54.5054 81.3221 57.0953C81.2936 57.7401 81.4627 58.3798 81.8119 58.9486C82.5648 60.3187 83.9708 61.1345 88.3793 62.7977C96.4979 65.8469 99.9722 67.8586 102.131 70.7177C104.544 73.8857 105.079 79.002 103.446 82.7878C101.632 86.9062 97.1873 89.7019 90.9011 90.6286C88.03 90.9157 85.129 90.8891 82.2654 90.5494C77.8952 89.9304 73.8637 88.1136 70.7543 85.3618C69.7111 84.3559 67.6792 81.7344 67.8062 81.5443C68.1373 81.3297 68.486 81.1365 68.8493 80.9662L73.022 78.8753L76.2785 77.2279L76.9589 78.107C78.107 79.541 79.5682 80.763 81.2586 81.7027C84.887 83.3659 89.8398 83.1362 92.289 81.2117C93.1113 80.5064 93.6243 79.5717 93.7387 78.5703C93.853 77.5689 93.5615 76.5642 92.9149 75.731C92.0078 74.6302 90.1936 73.7035 85.1228 71.771C79.272 69.5693 76.7502 68.207 74.4462 66.037C73.0078 64.6049 71.9459 62.9154 71.3348 61.087C70.879 58.998 70.8117 56.8586 71.1353 54.751C72.3417 49.8168 76.5779 46.3716 82.7644 45.3499C85.6294 45.0404 88.5315 45.1098 91.3728 45.5558V45.54ZM64.7583 49.6901V53.7451H50.036V90.3593H39.5952V53.7372H24.8366V49.7772C24.7969 48.414 24.8393 47.0498 24.9636 45.6905C25.018 45.6271 34.0346 45.5954 44.9199 45.6113H64.7039L64.7583 49.6901Z" fill="#FF2E63"/>
</svg>
