<svg width="1734" height="1133" viewBox="0 0 1734 1133" fill="none" xmlns="http://www.w3.org/2000/svg">
<rect width="1734" height="1133" fill="#252A34"/>
<path d="M201.062 154.875V167.719C199.562 168.219 198.125 168.781 196.75 169.406C195.375 169.969 194.156 170.5 193.094 171C191.844 171.625 190.688 172.25 189.625 172.875L186.344 174.844C185.406 175.406 184.375 176.031 183.25 176.719C182.125 177.406 181.094 178.062 180.156 178.688C181.219 179.438 182.219 180.125 183.156 180.75C184.156 181.375 185.031 181.938 185.781 182.438C186.656 183 187.5 183.531 188.312 184.031C189.312 184.656 190.469 185.312 191.781 186C193.156 186.688 194.438 187.312 195.625 187.875C196.875 188.438 197.938 188.938 198.812 189.375C199.688 189.75 200.156 190 200.219 190.125C200.281 190.312 200.312 190.906 200.312 191.906C200.312 192.781 200.312 194.094 200.312 195.844C200.312 197.594 200.281 200.062 200.219 203.25C198.406 201.562 196.719 200.031 195.156 198.656C193.656 197.281 192.312 196.094 191.125 195.094C189.75 193.969 188.469 192.969 187.281 192.094C186.031 191.219 184.531 190.125 182.781 188.812C181.281 187.688 179.375 186.25 177.062 184.5C174.812 182.75 172.125 180.688 169 178.312C171.938 176.188 174.375 174.438 176.312 173.062C178.25 171.688 179.781 170.594 180.906 169.781C182.219 168.844 183.25 168.156 184 167.719C184.812 167.156 186 166.312 187.562 165.188C188.875 164.25 190.594 162.969 192.719 161.344C194.906 159.656 197.688 157.5 201.062 154.875ZM239.125 136.125H246.156C246.656 136.125 247.188 136.156 247.75 136.219C248.25 136.281 248.781 136.344 249.344 136.406C249.969 136.406 250.625 136.469 251.312 136.594C248.312 141.781 245.781 146.312 243.719 150.188C241.656 154.062 239.938 157.312 238.562 159.938C236.938 163 235.594 165.594 234.531 167.719C233.406 169.969 232.031 172.906 230.406 176.531C228.969 179.656 227.125 183.688 224.875 188.625C222.688 193.562 220 199.594 216.812 206.719C216.312 206.719 215.781 206.75 215.219 206.812C214.656 206.812 214.125 206.844 213.625 206.906C213 206.969 212.406 207 211.844 207C211.219 207 210.562 207.062 209.875 207.188C209.25 207.312 208.562 207.438 207.812 207.562C207.062 207.688 206.25 207.875 205.375 208.125C208.75 201.688 211.531 196.375 213.719 192.188C215.906 188 217.625 184.594 218.875 181.969C220.375 178.969 221.531 176.594 222.344 174.844C223.656 172.031 225.156 168.688 226.844 164.812C228.281 161.5 230.031 157.469 232.094 152.719C234.156 147.906 236.5 142.375 239.125 136.125ZM255.625 154.875C258.938 157.5 261.688 159.656 263.875 161.344C266.062 162.969 267.812 164.25 269.125 165.188C270.688 166.312 271.875 167.156 272.688 167.719C273.438 168.156 274.469 168.844 275.781 169.781C276.906 170.594 278.406 171.688 280.281 173.062C282.219 174.438 284.688 176.188 287.688 178.312C284.5 180.688 281.781 182.75 279.531 184.5C277.281 186.25 275.406 187.688 273.906 188.812C272.156 190.125 270.656 191.219 269.406 192.094C268.219 192.969 266.938 193.969 265.562 195.094C264.375 196.094 263 197.281 261.438 198.656C259.875 200.031 258.188 201.562 256.375 203.25C256.312 200.062 256.281 197.594 256.281 195.844C256.281 194.094 256.281 192.781 256.281 191.906C256.281 190.906 256.312 190.312 256.375 190.125C256.438 190 256.906 189.75 257.781 189.375C258.719 188.938 259.781 188.438 260.969 187.875C262.219 187.312 263.5 186.688 264.812 186C266.188 185.312 267.375 184.656 268.375 184.031C269.188 183.531 270.031 183 270.906 182.438C271.656 181.938 272.5 181.375 273.438 180.75C274.375 180.125 275.375 179.438 276.438 178.688C275.5 178.062 274.469 177.406 273.344 176.719C272.281 176.031 271.281 175.406 270.344 174.844L267.062 172.875C266 172.25 264.844 171.625 263.594 171C262.531 170.5 261.281 169.969 259.844 169.406C258.469 168.781 257.062 168.219 255.625 167.719V154.875Z" fill="#FF2E63" fill-opacity="0.2"/>
<path d="M1336.06 901.875V914.719C1334.56 915.219 1333.12 915.781 1331.75 916.406C1330.38 916.969 1329.16 917.5 1328.09 918C1326.84 918.625 1325.69 919.25 1324.62 919.875L1321.34 921.844C1320.41 922.406 1319.38 923.031 1318.25 923.719C1317.12 924.406 1316.09 925.062 1315.16 925.688C1316.22 926.438 1317.22 927.125 1318.16 927.75C1319.16 928.375 1320.03 928.938 1320.78 929.438C1321.66 930 1322.5 930.531 1323.31 931.031C1324.31 931.656 1325.47 932.312 1326.78 933C1328.16 933.688 1329.44 934.312 1330.62 934.875C1331.88 935.438 1332.94 935.938 1333.81 936.375C1334.69 936.75 1335.16 937 1335.22 937.125C1335.28 937.312 1335.31 937.906 1335.31 938.906C1335.31 939.781 1335.31 941.094 1335.31 942.844C1335.31 944.594 1335.28 947.062 1335.22 950.25C1333.41 948.562 1331.72 947.031 1330.16 945.656C1328.66 944.281 1327.31 943.094 1326.12 942.094C1324.75 940.969 1323.47 939.969 1322.28 939.094C1321.03 938.219 1319.53 937.125 1317.78 935.812C1316.28 934.688 1314.38 933.25 1312.06 931.5C1309.81 929.75 1307.12 927.688 1304 925.312C1306.94 923.188 1309.38 921.438 1311.31 920.062C1313.25 918.688 1314.78 917.594 1315.91 916.781C1317.22 915.844 1318.25 915.156 1319 914.719C1319.81 914.156 1321 913.312 1322.56 912.188C1323.88 911.25 1325.59 909.969 1327.72 908.344C1329.91 906.656 1332.69 904.5 1336.06 901.875ZM1374.12 883.125H1381.16C1381.66 883.125 1382.19 883.156 1382.75 883.219C1383.25 883.281 1383.78 883.344 1384.34 883.406C1384.97 883.406 1385.62 883.469 1386.31 883.594C1383.31 888.781 1380.78 893.312 1378.72 897.188C1376.66 901.062 1374.94 904.312 1373.56 906.938C1371.94 910 1370.59 912.594 1369.53 914.719C1368.41 916.969 1367.03 919.906 1365.41 923.531C1363.97 926.656 1362.12 930.688 1359.88 935.625C1357.69 940.562 1355 946.594 1351.81 953.719C1351.31 953.719 1350.78 953.75 1350.22 953.812C1349.66 953.812 1349.12 953.844 1348.62 953.906C1348 953.969 1347.41 954 1346.84 954C1346.22 954 1345.56 954.062 1344.88 954.188C1344.25 954.312 1343.56 954.438 1342.81 954.562C1342.06 954.688 1341.25 954.875 1340.38 955.125C1343.75 948.688 1346.53 943.375 1348.72 939.188C1350.91 935 1352.62 931.594 1353.88 928.969C1355.38 925.969 1356.53 923.594 1357.34 921.844C1358.66 919.031 1360.16 915.688 1361.84 911.812C1363.28 908.5 1365.03 904.469 1367.09 899.719C1369.16 894.906 1371.5 889.375 1374.12 883.125ZM1390.62 901.875C1393.94 904.5 1396.69 906.656 1398.88 908.344C1401.06 909.969 1402.81 911.25 1404.12 912.188C1405.69 913.312 1406.88 914.156 1407.69 914.719C1408.44 915.156 1409.47 915.844 1410.78 916.781C1411.91 917.594 1413.41 918.688 1415.28 920.062C1417.22 921.438 1419.69 923.188 1422.69 925.312C1419.5 927.688 1416.78 929.75 1414.53 931.5C1412.28 933.25 1410.41 934.688 1408.91 935.812C1407.16 937.125 1405.66 938.219 1404.41 939.094C1403.22 939.969 1401.94 940.969 1400.56 942.094C1399.38 943.094 1398 944.281 1396.44 945.656C1394.88 947.031 1393.19 948.562 1391.38 950.25C1391.31 947.062 1391.28 944.594 1391.28 942.844C1391.28 941.094 1391.28 939.781 1391.28 938.906C1391.28 937.906 1391.31 937.312 1391.38 937.125C1391.44 937 1391.91 936.75 1392.78 936.375C1393.72 935.938 1394.78 935.438 1395.97 934.875C1397.22 934.312 1398.5 933.688 1399.81 933C1401.19 932.312 1402.38 931.656 1403.38 931.031C1404.19 930.531 1405.03 930 1405.91 929.438C1406.66 928.938 1407.5 928.375 1408.44 927.75C1409.38 927.125 1410.38 926.438 1411.44 925.688C1410.5 925.062 1409.47 924.406 1408.34 923.719C1407.28 923.031 1406.28 922.406 1405.34 921.844L1402.06 919.875C1401 919.25 1399.84 918.625 1398.59 918C1397.53 917.5 1396.28 916.969 1394.84 916.406C1393.47 915.781 1392.06 915.219 1390.62 914.719V901.875Z" fill="#FF2E63" fill-opacity="0.2"/>
<path d="M798.062 888.875V901.719C796.562 902.219 795.125 902.781 793.75 903.406C792.375 903.969 791.156 904.5 790.094 905C788.844 905.625 787.688 906.25 786.625 906.875L783.344 908.844C782.406 909.406 781.375 910.031 780.25 910.719C779.125 911.406 778.094 912.062 777.156 912.688C778.219 913.438 779.219 914.125 780.156 914.75C781.156 915.375 782.031 915.938 782.781 916.438C783.656 917 784.5 917.531 785.312 918.031C786.312 918.656 787.469 919.312 788.781 920C790.156 920.688 791.438 921.312 792.625 921.875C793.875 922.438 794.938 922.938 795.812 923.375C796.688 923.75 797.156 924 797.219 924.125C797.281 924.312 797.312 924.906 797.312 925.906C797.312 926.781 797.312 928.094 797.312 929.844C797.312 931.594 797.281 934.062 797.219 937.25C795.406 935.562 793.719 934.031 792.156 932.656C790.656 931.281 789.312 930.094 788.125 929.094C786.75 927.969 785.469 926.969 784.281 926.094C783.031 925.219 781.531 924.125 779.781 922.812C778.281 921.688 776.375 920.25 774.062 918.5C771.812 916.75 769.125 914.688 766 912.312C768.938 910.188 771.375 908.438 773.312 907.062C775.25 905.688 776.781 904.594 777.906 903.781C779.219 902.844 780.25 902.156 781 901.719C781.812 901.156 783 900.312 784.562 899.188C785.875 898.25 787.594 896.969 789.719 895.344C791.906 893.656 794.688 891.5 798.062 888.875ZM836.125 870.125H843.156C843.656 870.125 844.188 870.156 844.75 870.219C845.25 870.281 845.781 870.344 846.344 870.406C846.969 870.406 847.625 870.469 848.312 870.594C845.312 875.781 842.781 880.312 840.719 884.188C838.656 888.062 836.938 891.312 835.562 893.938C833.938 897 832.594 899.594 831.531 901.719C830.406 903.969 829.031 906.906 827.406 910.531C825.969 913.656 824.125 917.688 821.875 922.625C819.688 927.562 817 933.594 813.812 940.719C813.312 940.719 812.781 940.75 812.219 940.812C811.656 940.812 811.125 940.844 810.625 940.906C810 940.969 809.406 941 808.844 941C808.219 941 807.562 941.062 806.875 941.188C806.25 941.312 805.562 941.438 804.812 941.562C804.062 941.688 803.25 941.875 802.375 942.125C805.75 935.688 808.531 930.375 810.719 926.188C812.906 922 814.625 918.594 815.875 915.969C817.375 912.969 818.531 910.594 819.344 908.844C820.656 906.031 822.156 902.688 823.844 898.812C825.281 895.5 827.031 891.469 829.094 886.719C831.156 881.906 833.5 876.375 836.125 870.125ZM852.625 888.875C855.938 891.5 858.688 893.656 860.875 895.344C863.062 896.969 864.812 898.25 866.125 899.188C867.688 900.312 868.875 901.156 869.688 901.719C870.438 902.156 871.469 902.844 872.781 903.781C873.906 904.594 875.406 905.688 877.281 907.062C879.219 908.438 881.688 910.188 884.688 912.312C881.5 914.688 878.781 916.75 876.531 918.5C874.281 920.25 872.406 921.688 870.906 922.812C869.156 924.125 867.656 925.219 866.406 926.094C865.219 926.969 863.938 927.969 862.562 929.094C861.375 930.094 860 931.281 858.438 932.656C856.875 934.031 855.188 935.562 853.375 937.25C853.312 934.062 853.281 931.594 853.281 929.844C853.281 928.094 853.281 926.781 853.281 925.906C853.281 924.906 853.312 924.312 853.375 924.125C853.438 924 853.906 923.75 854.781 923.375C855.719 922.938 856.781 922.438 857.969 921.875C859.219 921.312 860.5 920.688 861.812 920C863.188 919.312 864.375 918.656 865.375 918.031C866.188 917.531 867.031 917 867.906 916.438C868.656 915.938 869.5 915.375 870.438 914.75C871.375 914.125 872.375 913.438 873.438 912.688C872.5 912.062 871.469 911.406 870.344 910.719C869.281 910.031 868.281 909.406 867.344 908.844L864.062 906.875C863 906.25 861.844 905.625 860.594 905C859.531 904.5 858.281 903.969 856.844 903.406C855.469 902.781 854.062 902.219 852.625 901.719V888.875Z" fill="#FF2E63" fill-opacity="0.2"/>
<path d="M386.062 873.875V886.719C384.562 887.219 383.125 887.781 381.75 888.406C380.375 888.969 379.156 889.5 378.094 890C376.844 890.625 375.688 891.25 374.625 891.875L371.344 893.844C370.406 894.406 369.375 895.031 368.25 895.719C367.125 896.406 366.094 897.062 365.156 897.688C366.219 898.438 367.219 899.125 368.156 899.75C369.156 900.375 370.031 900.938 370.781 901.438C371.656 902 372.5 902.531 373.312 903.031C374.312 903.656 375.469 904.312 376.781 905C378.156 905.688 379.438 906.312 380.625 906.875C381.875 907.438 382.938 907.938 383.812 908.375C384.688 908.75 385.156 909 385.219 909.125C385.281 909.312 385.312 909.906 385.312 910.906C385.312 911.781 385.312 913.094 385.312 914.844C385.312 916.594 385.281 919.062 385.219 922.25C383.406 920.562 381.719 919.031 380.156 917.656C378.656 916.281 377.312 915.094 376.125 914.094C374.75 912.969 373.469 911.969 372.281 911.094C371.031 910.219 369.531 909.125 367.781 907.812C366.281 906.688 364.375 905.25 362.062 903.5C359.812 901.75 357.125 899.688 354 897.312C356.938 895.188 359.375 893.438 361.312 892.062C363.25 890.688 364.781 889.594 365.906 888.781C367.219 887.844 368.25 887.156 369 886.719C369.812 886.156 371 885.312 372.562 884.188C373.875 883.25 375.594 881.969 377.719 880.344C379.906 878.656 382.688 876.5 386.062 873.875ZM424.125 855.125H431.156C431.656 855.125 432.188 855.156 432.75 855.219C433.25 855.281 433.781 855.344 434.344 855.406C434.969 855.406 435.625 855.469 436.312 855.594C433.312 860.781 430.781 865.312 428.719 869.188C426.656 873.062 424.938 876.312 423.562 878.938C421.938 882 420.594 884.594 419.531 886.719C418.406 888.969 417.031 891.906 415.406 895.531C413.969 898.656 412.125 902.688 409.875 907.625C407.688 912.562 405 918.594 401.812 925.719C401.312 925.719 400.781 925.75 400.219 925.812C399.656 925.812 399.125 925.844 398.625 925.906C398 925.969 397.406 926 396.844 926C396.219 926 395.562 926.062 394.875 926.188C394.25 926.312 393.562 926.438 392.812 926.562C392.062 926.688 391.25 926.875 390.375 927.125C393.75 920.688 396.531 915.375 398.719 911.188C400.906 907 402.625 903.594 403.875 900.969C405.375 897.969 406.531 895.594 407.344 893.844C408.656 891.031 410.156 887.688 411.844 883.812C413.281 880.5 415.031 876.469 417.094 871.719C419.156 866.906 421.5 861.375 424.125 855.125ZM440.625 873.875C443.938 876.5 446.688 878.656 448.875 880.344C451.062 881.969 452.812 883.25 454.125 884.188C455.688 885.312 456.875 886.156 457.688 886.719C458.438 887.156 459.469 887.844 460.781 888.781C461.906 889.594 463.406 890.688 465.281 892.062C467.219 893.438 469.688 895.188 472.688 897.312C469.5 899.688 466.781 901.75 464.531 903.5C462.281 905.25 460.406 906.688 458.906 907.812C457.156 909.125 455.656 910.219 454.406 911.094C453.219 911.969 451.938 912.969 450.562 914.094C449.375 915.094 448 916.281 446.438 917.656C444.875 919.031 443.188 920.562 441.375 922.25C441.312 919.062 441.281 916.594 441.281 914.844C441.281 913.094 441.281 911.781 441.281 910.906C441.281 909.906 441.312 909.312 441.375 909.125C441.438 909 441.906 908.75 442.781 908.375C443.719 907.938 444.781 907.438 445.969 906.875C447.219 906.312 448.5 905.688 449.812 905C451.188 904.312 452.375 903.656 453.375 903.031C454.188 902.531 455.031 902 455.906 901.438C456.656 900.938 457.5 900.375 458.438 899.75C459.375 899.125 460.375 898.438 461.438 897.688C460.5 897.062 459.469 896.406 458.344 895.719C457.281 895.031 456.281 894.406 455.344 893.844L452.062 891.875C451 891.25 449.844 890.625 448.594 890C447.531 889.5 446.281 888.969 444.844 888.406C443.469 887.781 442.062 887.219 440.625 886.719V873.875Z" fill="#FF2E63" fill-opacity="0.2"/>
<path d="M1420.06 489.875V502.719C1418.56 503.219 1417.12 503.781 1415.75 504.406C1414.38 504.969 1413.16 505.5 1412.09 506C1410.84 506.625 1409.69 507.25 1408.62 507.875L1405.34 509.844C1404.41 510.406 1403.38 511.031 1402.25 511.719C1401.12 512.406 1400.09 513.062 1399.16 513.688C1400.22 514.438 1401.22 515.125 1402.16 515.75C1403.16 516.375 1404.03 516.938 1404.78 517.438C1405.66 518 1406.5 518.531 1407.31 519.031C1408.31 519.656 1409.47 520.312 1410.78 521C1412.16 521.688 1413.44 522.312 1414.62 522.875C1415.88 523.438 1416.94 523.938 1417.81 524.375C1418.69 524.75 1419.16 525 1419.22 525.125C1419.28 525.312 1419.31 525.906 1419.31 526.906C1419.31 527.781 1419.31 529.094 1419.31 530.844C1419.31 532.594 1419.28 535.062 1419.22 538.25C1417.41 536.562 1415.72 535.031 1414.16 533.656C1412.66 532.281 1411.31 531.094 1410.12 530.094C1408.75 528.969 1407.47 527.969 1406.28 527.094C1405.03 526.219 1403.53 525.125 1401.78 523.812C1400.28 522.688 1398.38 521.25 1396.06 519.5C1393.81 517.75 1391.12 515.688 1388 513.312C1390.94 511.188 1393.38 509.438 1395.31 508.062C1397.25 506.688 1398.78 505.594 1399.91 504.781C1401.22 503.844 1402.25 503.156 1403 502.719C1403.81 502.156 1405 501.312 1406.56 500.188C1407.88 499.25 1409.59 497.969 1411.72 496.344C1413.91 494.656 1416.69 492.5 1420.06 489.875ZM1458.12 471.125H1465.16C1465.66 471.125 1466.19 471.156 1466.75 471.219C1467.25 471.281 1467.78 471.344 1468.34 471.406C1468.97 471.406 1469.62 471.469 1470.31 471.594C1467.31 476.781 1464.78 481.312 1462.72 485.188C1460.66 489.062 1458.94 492.312 1457.56 494.938C1455.94 498 1454.59 500.594 1453.53 502.719C1452.41 504.969 1451.03 507.906 1449.41 511.531C1447.97 514.656 1446.12 518.688 1443.88 523.625C1441.69 528.562 1439 534.594 1435.81 541.719C1435.31 541.719 1434.78 541.75 1434.22 541.812C1433.66 541.812 1433.12 541.844 1432.62 541.906C1432 541.969 1431.41 542 1430.84 542C1430.22 542 1429.56 542.062 1428.88 542.188C1428.25 542.312 1427.56 542.438 1426.81 542.562C1426.06 542.688 1425.25 542.875 1424.38 543.125C1427.75 536.688 1430.53 531.375 1432.72 527.188C1434.91 523 1436.62 519.594 1437.88 516.969C1439.38 513.969 1440.53 511.594 1441.34 509.844C1442.66 507.031 1444.16 503.688 1445.84 499.812C1447.28 496.5 1449.03 492.469 1451.09 487.719C1453.16 482.906 1455.5 477.375 1458.12 471.125ZM1474.62 489.875C1477.94 492.5 1480.69 494.656 1482.88 496.344C1485.06 497.969 1486.81 499.25 1488.12 500.188C1489.69 501.312 1490.88 502.156 1491.69 502.719C1492.44 503.156 1493.47 503.844 1494.78 504.781C1495.91 505.594 1497.41 506.688 1499.28 508.062C1501.22 509.438 1503.69 511.188 1506.69 513.312C1503.5 515.688 1500.78 517.75 1498.53 519.5C1496.28 521.25 1494.41 522.688 1492.91 523.812C1491.16 525.125 1489.66 526.219 1488.41 527.094C1487.22 527.969 1485.94 528.969 1484.56 530.094C1483.38 531.094 1482 532.281 1480.44 533.656C1478.88 535.031 1477.19 536.562 1475.38 538.25C1475.31 535.062 1475.28 532.594 1475.28 530.844C1475.28 529.094 1475.28 527.781 1475.28 526.906C1475.28 525.906 1475.31 525.312 1475.38 525.125C1475.44 525 1475.91 524.75 1476.78 524.375C1477.72 523.938 1478.78 523.438 1479.97 522.875C1481.22 522.312 1482.5 521.688 1483.81 521C1485.19 520.312 1486.38 519.656 1487.38 519.031C1488.19 518.531 1489.03 518 1489.91 517.438C1490.66 516.938 1491.5 516.375 1492.44 515.75C1493.38 515.125 1494.38 514.438 1495.44 513.688C1494.5 513.062 1493.47 512.406 1492.34 511.719C1491.28 511.031 1490.28 510.406 1489.34 509.844L1486.06 507.875C1485 507.25 1483.84 506.625 1482.59 506C1481.53 505.5 1480.28 504.969 1478.84 504.406C1477.47 503.781 1476.06 503.219 1474.62 502.719V489.875Z" fill="#FF2E63" fill-opacity="0.2"/>
<path d="M575.062 637.875V650.719C573.562 651.219 572.125 651.781 570.75 652.406C569.375 652.969 568.156 653.5 567.094 654C565.844 654.625 564.688 655.25 563.625 655.875L560.344 657.844C559.406 658.406 558.375 659.031 557.25 659.719C556.125 660.406 555.094 661.062 554.156 661.688C555.219 662.438 556.219 663.125 557.156 663.75C558.156 664.375 559.031 664.938 559.781 665.438C560.656 666 561.5 666.531 562.312 667.031C563.312 667.656 564.469 668.312 565.781 669C567.156 669.688 568.438 670.312 569.625 670.875C570.875 671.438 571.938 671.938 572.812 672.375C573.688 672.75 574.156 673 574.219 673.125C574.281 673.312 574.312 673.906 574.312 674.906C574.312 675.781 574.312 677.094 574.312 678.844C574.312 680.594 574.281 683.062 574.219 686.25C572.406 684.562 570.719 683.031 569.156 681.656C567.656 680.281 566.312 679.094 565.125 678.094C563.75 676.969 562.469 675.969 561.281 675.094C560.031 674.219 558.531 673.125 556.781 671.812C555.281 670.688 553.375 669.25 551.062 667.5C548.812 665.75 546.125 663.688 543 661.312C545.938 659.188 548.375 657.438 550.312 656.062C552.25 654.688 553.781 653.594 554.906 652.781C556.219 651.844 557.25 651.156 558 650.719C558.812 650.156 560 649.312 561.562 648.188C562.875 647.25 564.594 645.969 566.719 644.344C568.906 642.656 571.688 640.5 575.062 637.875ZM613.125 619.125H620.156C620.656 619.125 621.188 619.156 621.75 619.219C622.25 619.281 622.781 619.344 623.344 619.406C623.969 619.406 624.625 619.469 625.312 619.594C622.312 624.781 619.781 629.312 617.719 633.188C615.656 637.062 613.938 640.312 612.562 642.938C610.938 646 609.594 648.594 608.531 650.719C607.406 652.969 606.031 655.906 604.406 659.531C602.969 662.656 601.125 666.688 598.875 671.625C596.688 676.562 594 682.594 590.812 689.719C590.312 689.719 589.781 689.75 589.219 689.812C588.656 689.812 588.125 689.844 587.625 689.906C587 689.969 586.406 690 585.844 690C585.219 690 584.562 690.062 583.875 690.188C583.25 690.312 582.562 690.438 581.812 690.562C581.062 690.688 580.25 690.875 579.375 691.125C582.75 684.688 585.531 679.375 587.719 675.188C589.906 671 591.625 667.594 592.875 664.969C594.375 661.969 595.531 659.594 596.344 657.844C597.656 655.031 599.156 651.688 600.844 647.812C602.281 644.5 604.031 640.469 606.094 635.719C608.156 630.906 610.5 625.375 613.125 619.125ZM629.625 637.875C632.938 640.5 635.688 642.656 637.875 644.344C640.062 645.969 641.812 647.25 643.125 648.188C644.688 649.312 645.875 650.156 646.688 650.719C647.438 651.156 648.469 651.844 649.781 652.781C650.906 653.594 652.406 654.688 654.281 656.062C656.219 657.438 658.688 659.188 661.688 661.312C658.5 663.688 655.781 665.75 653.531 667.5C651.281 669.25 649.406 670.688 647.906 671.812C646.156 673.125 644.656 674.219 643.406 675.094C642.219 675.969 640.938 676.969 639.562 678.094C638.375 679.094 637 680.281 635.438 681.656C633.875 683.031 632.188 684.562 630.375 686.25C630.312 683.062 630.281 680.594 630.281 678.844C630.281 677.094 630.281 675.781 630.281 674.906C630.281 673.906 630.312 673.312 630.375 673.125C630.438 673 630.906 672.75 631.781 672.375C632.719 671.938 633.781 671.438 634.969 670.875C636.219 670.312 637.5 669.688 638.812 669C640.188 668.312 641.375 667.656 642.375 667.031C643.188 666.531 644.031 666 644.906 665.438C645.656 664.938 646.5 664.375 647.438 663.75C648.375 663.125 649.375 662.438 650.438 661.688C649.5 661.062 648.469 660.406 647.344 659.719C646.281 659.031 645.281 658.406 644.344 657.844L641.062 655.875C640 655.25 638.844 654.625 637.594 654C636.531 653.5 635.281 652.969 633.844 652.406C632.469 651.781 631.062 651.219 629.625 650.719V637.875Z" fill="#FF2E63" fill-opacity="0.2"/>
<path d="M238.062 664.875V677.719C236.562 678.219 235.125 678.781 233.75 679.406C232.375 679.969 231.156 680.5 230.094 681C228.844 681.625 227.688 682.25 226.625 682.875L223.344 684.844C222.406 685.406 221.375 686.031 220.25 686.719C219.125 687.406 218.094 688.062 217.156 688.688C218.219 689.438 219.219 690.125 220.156 690.75C221.156 691.375 222.031 691.938 222.781 692.438C223.656 693 224.5 693.531 225.312 694.031C226.312 694.656 227.469 695.312 228.781 696C230.156 696.688 231.438 697.312 232.625 697.875C233.875 698.438 234.938 698.938 235.812 699.375C236.688 699.75 237.156 700 237.219 700.125C237.281 700.312 237.312 700.906 237.312 701.906C237.312 702.781 237.312 704.094 237.312 705.844C237.312 707.594 237.281 710.062 237.219 713.25C235.406 711.562 233.719 710.031 232.156 708.656C230.656 707.281 229.312 706.094 228.125 705.094C226.75 703.969 225.469 702.969 224.281 702.094C223.031 701.219 221.531 700.125 219.781 698.812C218.281 697.688 216.375 696.25 214.062 694.5C211.812 692.75 209.125 690.688 206 688.312C208.938 686.188 211.375 684.438 213.312 683.062C215.25 681.688 216.781 680.594 217.906 679.781C219.219 678.844 220.25 678.156 221 677.719C221.812 677.156 223 676.312 224.562 675.188C225.875 674.25 227.594 672.969 229.719 671.344C231.906 669.656 234.688 667.5 238.062 664.875ZM276.125 646.125H283.156C283.656 646.125 284.188 646.156 284.75 646.219C285.25 646.281 285.781 646.344 286.344 646.406C286.969 646.406 287.625 646.469 288.312 646.594C285.312 651.781 282.781 656.312 280.719 660.188C278.656 664.062 276.938 667.312 275.562 669.938C273.938 673 272.594 675.594 271.531 677.719C270.406 679.969 269.031 682.906 267.406 686.531C265.969 689.656 264.125 693.688 261.875 698.625C259.688 703.562 257 709.594 253.812 716.719C253.312 716.719 252.781 716.75 252.219 716.812C251.656 716.812 251.125 716.844 250.625 716.906C250 716.969 249.406 717 248.844 717C248.219 717 247.562 717.062 246.875 717.188C246.25 717.312 245.562 717.438 244.812 717.562C244.062 717.688 243.25 717.875 242.375 718.125C245.75 711.688 248.531 706.375 250.719 702.188C252.906 698 254.625 694.594 255.875 691.969C257.375 688.969 258.531 686.594 259.344 684.844C260.656 682.031 262.156 678.688 263.844 674.812C265.281 671.5 267.031 667.469 269.094 662.719C271.156 657.906 273.5 652.375 276.125 646.125ZM292.625 664.875C295.938 667.5 298.688 669.656 300.875 671.344C303.062 672.969 304.812 674.25 306.125 675.188C307.688 676.312 308.875 677.156 309.688 677.719C310.438 678.156 311.469 678.844 312.781 679.781C313.906 680.594 315.406 681.688 317.281 683.062C319.219 684.438 321.688 686.188 324.688 688.312C321.5 690.688 318.781 692.75 316.531 694.5C314.281 696.25 312.406 697.688 310.906 698.812C309.156 700.125 307.656 701.219 306.406 702.094C305.219 702.969 303.938 703.969 302.562 705.094C301.375 706.094 300 707.281 298.438 708.656C296.875 710.031 295.188 711.562 293.375 713.25C293.312 710.062 293.281 707.594 293.281 705.844C293.281 704.094 293.281 702.781 293.281 701.906C293.281 700.906 293.312 700.312 293.375 700.125C293.438 700 293.906 699.75 294.781 699.375C295.719 698.938 296.781 698.438 297.969 697.875C299.219 697.312 300.5 696.688 301.812 696C303.188 695.312 304.375 694.656 305.375 694.031C306.188 693.531 307.031 693 307.906 692.438C308.656 691.938 309.5 691.375 310.438 690.75C311.375 690.125 312.375 689.438 313.438 688.688C312.5 688.062 311.469 687.406 310.344 686.719C309.281 686.031 308.281 685.406 307.344 684.844L304.062 682.875C303 682.25 301.844 681.625 300.594 681C299.531 680.5 298.281 679.969 296.844 679.406C295.469 678.781 294.062 678.219 292.625 677.719V664.875Z" fill="#FF2E63" fill-opacity="0.2"/>
<path d="M446.062 378.875V391.719C444.562 392.219 443.125 392.781 441.75 393.406C440.375 393.969 439.156 394.5 438.094 395C436.844 395.625 435.688 396.25 434.625 396.875L431.344 398.844C430.406 399.406 429.375 400.031 428.25 400.719C427.125 401.406 426.094 402.062 425.156 402.688C426.219 403.438 427.219 404.125 428.156 404.75C429.156 405.375 430.031 405.938 430.781 406.438C431.656 407 432.5 407.531 433.312 408.031C434.312 408.656 435.469 409.312 436.781 410C438.156 410.688 439.438 411.312 440.625 411.875C441.875 412.438 442.938 412.938 443.812 413.375C444.688 413.75 445.156 414 445.219 414.125C445.281 414.312 445.312 414.906 445.312 415.906C445.312 416.781 445.312 418.094 445.312 419.844C445.312 421.594 445.281 424.062 445.219 427.25C443.406 425.562 441.719 424.031 440.156 422.656C438.656 421.281 437.312 420.094 436.125 419.094C434.75 417.969 433.469 416.969 432.281 416.094C431.031 415.219 429.531 414.125 427.781 412.812C426.281 411.688 424.375 410.25 422.062 408.5C419.812 406.75 417.125 404.688 414 402.312C416.938 400.188 419.375 398.438 421.312 397.062C423.25 395.688 424.781 394.594 425.906 393.781C427.219 392.844 428.25 392.156 429 391.719C429.812 391.156 431 390.312 432.562 389.188C433.875 388.25 435.594 386.969 437.719 385.344C439.906 383.656 442.688 381.5 446.062 378.875ZM484.125 360.125H491.156C491.656 360.125 492.188 360.156 492.75 360.219C493.25 360.281 493.781 360.344 494.344 360.406C494.969 360.406 495.625 360.469 496.312 360.594C493.312 365.781 490.781 370.312 488.719 374.188C486.656 378.062 484.938 381.312 483.562 383.938C481.938 387 480.594 389.594 479.531 391.719C478.406 393.969 477.031 396.906 475.406 400.531C473.969 403.656 472.125 407.688 469.875 412.625C467.688 417.562 465 423.594 461.812 430.719C461.312 430.719 460.781 430.75 460.219 430.812C459.656 430.812 459.125 430.844 458.625 430.906C458 430.969 457.406 431 456.844 431C456.219 431 455.562 431.062 454.875 431.188C454.25 431.312 453.562 431.438 452.812 431.562C452.062 431.688 451.25 431.875 450.375 432.125C453.75 425.688 456.531 420.375 458.719 416.188C460.906 412 462.625 408.594 463.875 405.969C465.375 402.969 466.531 400.594 467.344 398.844C468.656 396.031 470.156 392.688 471.844 388.812C473.281 385.5 475.031 381.469 477.094 376.719C479.156 371.906 481.5 366.375 484.125 360.125ZM500.625 378.875C503.938 381.5 506.688 383.656 508.875 385.344C511.062 386.969 512.812 388.25 514.125 389.188C515.688 390.312 516.875 391.156 517.688 391.719C518.438 392.156 519.469 392.844 520.781 393.781C521.906 394.594 523.406 395.688 525.281 397.062C527.219 398.438 529.688 400.188 532.688 402.312C529.5 404.688 526.781 406.75 524.531 408.5C522.281 410.25 520.406 411.688 518.906 412.812C517.156 414.125 515.656 415.219 514.406 416.094C513.219 416.969 511.938 417.969 510.562 419.094C509.375 420.094 508 421.281 506.438 422.656C504.875 424.031 503.188 425.562 501.375 427.25C501.312 424.062 501.281 421.594 501.281 419.844C501.281 418.094 501.281 416.781 501.281 415.906C501.281 414.906 501.312 414.312 501.375 414.125C501.438 414 501.906 413.75 502.781 413.375C503.719 412.938 504.781 412.438 505.969 411.875C507.219 411.312 508.5 410.688 509.812 410C511.188 409.312 512.375 408.656 513.375 408.031C514.188 407.531 515.031 407 515.906 406.438C516.656 405.938 517.5 405.375 518.438 404.75C519.375 404.125 520.375 403.438 521.438 402.688C520.5 402.062 519.469 401.406 518.344 400.719C517.281 400.031 516.281 399.406 515.344 398.844L512.062 396.875C511 396.25 509.844 395.625 508.594 395C507.531 394.5 506.281 393.969 504.844 393.406C503.469 392.781 502.062 392.219 500.625 391.719V378.875Z" fill="#FF2E63" fill-opacity="0.2"/>
<path d="M614.062 148.875V161.719C612.562 162.219 611.125 162.781 609.75 163.406C608.375 163.969 607.156 164.5 606.094 165C604.844 165.625 603.688 166.25 602.625 166.875L599.344 168.844C598.406 169.406 597.375 170.031 596.25 170.719C595.125 171.406 594.094 172.062 593.156 172.688C594.219 173.438 595.219 174.125 596.156 174.75C597.156 175.375 598.031 175.938 598.781 176.438C599.656 177 600.5 177.531 601.312 178.031C602.312 178.656 603.469 179.312 604.781 180C606.156 180.688 607.438 181.312 608.625 181.875C609.875 182.438 610.938 182.938 611.812 183.375C612.688 183.75 613.156 184 613.219 184.125C613.281 184.312 613.312 184.906 613.312 185.906C613.312 186.781 613.312 188.094 613.312 189.844C613.312 191.594 613.281 194.062 613.219 197.25C611.406 195.562 609.719 194.031 608.156 192.656C606.656 191.281 605.312 190.094 604.125 189.094C602.75 187.969 601.469 186.969 600.281 186.094C599.031 185.219 597.531 184.125 595.781 182.812C594.281 181.688 592.375 180.25 590.062 178.5C587.812 176.75 585.125 174.688 582 172.312C584.938 170.188 587.375 168.438 589.312 167.062C591.25 165.688 592.781 164.594 593.906 163.781C595.219 162.844 596.25 162.156 597 161.719C597.812 161.156 599 160.312 600.562 159.188C601.875 158.25 603.594 156.969 605.719 155.344C607.906 153.656 610.688 151.5 614.062 148.875ZM652.125 130.125H659.156C659.656 130.125 660.188 130.156 660.75 130.219C661.25 130.281 661.781 130.344 662.344 130.406C662.969 130.406 663.625 130.469 664.312 130.594C661.312 135.781 658.781 140.312 656.719 144.188C654.656 148.062 652.938 151.312 651.562 153.938C649.938 157 648.594 159.594 647.531 161.719C646.406 163.969 645.031 166.906 643.406 170.531C641.969 173.656 640.125 177.688 637.875 182.625C635.688 187.562 633 193.594 629.812 200.719C629.312 200.719 628.781 200.75 628.219 200.812C627.656 200.812 627.125 200.844 626.625 200.906C626 200.969 625.406 201 624.844 201C624.219 201 623.562 201.062 622.875 201.188C622.25 201.312 621.562 201.438 620.812 201.562C620.062 201.688 619.25 201.875 618.375 202.125C621.75 195.688 624.531 190.375 626.719 186.188C628.906 182 630.625 178.594 631.875 175.969C633.375 172.969 634.531 170.594 635.344 168.844C636.656 166.031 638.156 162.688 639.844 158.812C641.281 155.5 643.031 151.469 645.094 146.719C647.156 141.906 649.5 136.375 652.125 130.125ZM668.625 148.875C671.938 151.5 674.688 153.656 676.875 155.344C679.062 156.969 680.812 158.25 682.125 159.188C683.688 160.312 684.875 161.156 685.688 161.719C686.438 162.156 687.469 162.844 688.781 163.781C689.906 164.594 691.406 165.688 693.281 167.062C695.219 168.438 697.688 170.188 700.688 172.312C697.5 174.688 694.781 176.75 692.531 178.5C690.281 180.25 688.406 181.688 686.906 182.812C685.156 184.125 683.656 185.219 682.406 186.094C681.219 186.969 679.938 187.969 678.562 189.094C677.375 190.094 676 191.281 674.438 192.656C672.875 194.031 671.188 195.562 669.375 197.25C669.312 194.062 669.281 191.594 669.281 189.844C669.281 188.094 669.281 186.781 669.281 185.906C669.281 184.906 669.312 184.312 669.375 184.125C669.438 184 669.906 183.75 670.781 183.375C671.719 182.938 672.781 182.438 673.969 181.875C675.219 181.312 676.5 180.688 677.812 180C679.188 179.312 680.375 178.656 681.375 178.031C682.188 177.531 683.031 177 683.906 176.438C684.656 175.938 685.5 175.375 686.438 174.75C687.375 174.125 688.375 173.438 689.438 172.688C688.5 172.062 687.469 171.406 686.344 170.719C685.281 170.031 684.281 169.406 683.344 168.844L680.062 166.875C679 166.25 677.844 165.625 676.594 165C675.531 164.5 674.281 163.969 672.844 163.406C671.469 162.781 670.062 162.219 668.625 161.719V148.875Z" fill="#FF2E63" fill-opacity="0.2"/>
<path d="M1051.06 664.875V677.719C1049.56 678.219 1048.12 678.781 1046.75 679.406C1045.38 679.969 1044.16 680.5 1043.09 681C1041.84 681.625 1040.69 682.25 1039.62 682.875L1036.34 684.844C1035.41 685.406 1034.38 686.031 1033.25 686.719C1032.12 687.406 1031.09 688.062 1030.16 688.688C1031.22 689.438 1032.22 690.125 1033.16 690.75C1034.16 691.375 1035.03 691.938 1035.78 692.438C1036.66 693 1037.5 693.531 1038.31 694.031C1039.31 694.656 1040.47 695.312 1041.78 696C1043.16 696.688 1044.44 697.312 1045.62 697.875C1046.88 698.438 1047.94 698.938 1048.81 699.375C1049.69 699.75 1050.16 700 1050.22 700.125C1050.28 700.312 1050.31 700.906 1050.31 701.906C1050.31 702.781 1050.31 704.094 1050.31 705.844C1050.31 707.594 1050.28 710.062 1050.22 713.25C1048.41 711.562 1046.72 710.031 1045.16 708.656C1043.66 707.281 1042.31 706.094 1041.12 705.094C1039.75 703.969 1038.47 702.969 1037.28 702.094C1036.03 701.219 1034.53 700.125 1032.78 698.812C1031.28 697.688 1029.38 696.25 1027.06 694.5C1024.81 692.75 1022.12 690.688 1019 688.312C1021.94 686.188 1024.38 684.438 1026.31 683.062C1028.25 681.688 1029.78 680.594 1030.91 679.781C1032.22 678.844 1033.25 678.156 1034 677.719C1034.81 677.156 1036 676.312 1037.56 675.188C1038.88 674.25 1040.59 672.969 1042.72 671.344C1044.91 669.656 1047.69 667.5 1051.06 664.875ZM1089.12 646.125H1096.16C1096.66 646.125 1097.19 646.156 1097.75 646.219C1098.25 646.281 1098.78 646.344 1099.34 646.406C1099.97 646.406 1100.62 646.469 1101.31 646.594C1098.31 651.781 1095.78 656.312 1093.72 660.188C1091.66 664.062 1089.94 667.312 1088.56 669.938C1086.94 673 1085.59 675.594 1084.53 677.719C1083.41 679.969 1082.03 682.906 1080.41 686.531C1078.97 689.656 1077.12 693.688 1074.88 698.625C1072.69 703.562 1070 709.594 1066.81 716.719C1066.31 716.719 1065.78 716.75 1065.22 716.812C1064.66 716.812 1064.12 716.844 1063.62 716.906C1063 716.969 1062.41 717 1061.84 717C1061.22 717 1060.56 717.062 1059.88 717.188C1059.25 717.312 1058.56 717.438 1057.81 717.562C1057.06 717.688 1056.25 717.875 1055.38 718.125C1058.75 711.688 1061.53 706.375 1063.72 702.188C1065.91 698 1067.62 694.594 1068.88 691.969C1070.38 688.969 1071.53 686.594 1072.34 684.844C1073.66 682.031 1075.16 678.688 1076.84 674.812C1078.28 671.5 1080.03 667.469 1082.09 662.719C1084.16 657.906 1086.5 652.375 1089.12 646.125ZM1105.62 664.875C1108.94 667.5 1111.69 669.656 1113.88 671.344C1116.06 672.969 1117.81 674.25 1119.12 675.188C1120.69 676.312 1121.88 677.156 1122.69 677.719C1123.44 678.156 1124.47 678.844 1125.78 679.781C1126.91 680.594 1128.41 681.688 1130.28 683.062C1132.22 684.438 1134.69 686.188 1137.69 688.312C1134.5 690.688 1131.78 692.75 1129.53 694.5C1127.28 696.25 1125.41 697.688 1123.91 698.812C1122.16 700.125 1120.66 701.219 1119.41 702.094C1118.22 702.969 1116.94 703.969 1115.56 705.094C1114.38 706.094 1113 707.281 1111.44 708.656C1109.88 710.031 1108.19 711.562 1106.38 713.25C1106.31 710.062 1106.28 707.594 1106.28 705.844C1106.28 704.094 1106.28 702.781 1106.28 701.906C1106.28 700.906 1106.31 700.312 1106.38 700.125C1106.44 700 1106.91 699.75 1107.78 699.375C1108.72 698.938 1109.78 698.438 1110.97 697.875C1112.22 697.312 1113.5 696.688 1114.81 696C1116.19 695.312 1117.38 694.656 1118.38 694.031C1119.19 693.531 1120.03 693 1120.91 692.438C1121.66 691.938 1122.5 691.375 1123.44 690.75C1124.38 690.125 1125.38 689.438 1126.44 688.688C1125.5 688.062 1124.47 687.406 1123.34 686.719C1122.28 686.031 1121.28 685.406 1120.34 684.844L1117.06 682.875C1116 682.25 1114.84 681.625 1113.59 681C1112.53 680.5 1111.28 679.969 1109.84 679.406C1108.47 678.781 1107.06 678.219 1105.62 677.719V664.875Z" fill="#FF2E63" fill-opacity="0.2"/>
<path d="M1111.06 124.875V137.719C1109.56 138.219 1108.12 138.781 1106.75 139.406C1105.38 139.969 1104.16 140.5 1103.09 141C1101.84 141.625 1100.69 142.25 1099.62 142.875L1096.34 144.844C1095.41 145.406 1094.38 146.031 1093.25 146.719C1092.12 147.406 1091.09 148.062 1090.16 148.688C1091.22 149.438 1092.22 150.125 1093.16 150.75C1094.16 151.375 1095.03 151.938 1095.78 152.438C1096.66 153 1097.5 153.531 1098.31 154.031C1099.31 154.656 1100.47 155.312 1101.78 156C1103.16 156.688 1104.44 157.312 1105.62 157.875C1106.88 158.438 1107.94 158.938 1108.81 159.375C1109.69 159.75 1110.16 160 1110.22 160.125C1110.28 160.312 1110.31 160.906 1110.31 161.906C1110.31 162.781 1110.31 164.094 1110.31 165.844C1110.31 167.594 1110.28 170.062 1110.22 173.25C1108.41 171.562 1106.72 170.031 1105.16 168.656C1103.66 167.281 1102.31 166.094 1101.12 165.094C1099.75 163.969 1098.47 162.969 1097.28 162.094C1096.03 161.219 1094.53 160.125 1092.78 158.812C1091.28 157.688 1089.38 156.25 1087.06 154.5C1084.81 152.75 1082.12 150.688 1079 148.312C1081.94 146.188 1084.38 144.438 1086.31 143.062C1088.25 141.688 1089.78 140.594 1090.91 139.781C1092.22 138.844 1093.25 138.156 1094 137.719C1094.81 137.156 1096 136.312 1097.56 135.188C1098.88 134.25 1100.59 132.969 1102.72 131.344C1104.91 129.656 1107.69 127.5 1111.06 124.875ZM1149.12 106.125H1156.16C1156.66 106.125 1157.19 106.156 1157.75 106.219C1158.25 106.281 1158.78 106.344 1159.34 106.406C1159.97 106.406 1160.62 106.469 1161.31 106.594C1158.31 111.781 1155.78 116.312 1153.72 120.188C1151.66 124.062 1149.94 127.312 1148.56 129.938C1146.94 133 1145.59 135.594 1144.53 137.719C1143.41 139.969 1142.03 142.906 1140.41 146.531C1138.97 149.656 1137.12 153.688 1134.88 158.625C1132.69 163.562 1130 169.594 1126.81 176.719C1126.31 176.719 1125.78 176.75 1125.22 176.812C1124.66 176.812 1124.12 176.844 1123.62 176.906C1123 176.969 1122.41 177 1121.84 177C1121.22 177 1120.56 177.062 1119.88 177.188C1119.25 177.312 1118.56 177.438 1117.81 177.562C1117.06 177.688 1116.25 177.875 1115.38 178.125C1118.75 171.688 1121.53 166.375 1123.72 162.188C1125.91 158 1127.62 154.594 1128.88 151.969C1130.38 148.969 1131.53 146.594 1132.34 144.844C1133.66 142.031 1135.16 138.688 1136.84 134.812C1138.28 131.5 1140.03 127.469 1142.09 122.719C1144.16 117.906 1146.5 112.375 1149.12 106.125ZM1165.62 124.875C1168.94 127.5 1171.69 129.656 1173.88 131.344C1176.06 132.969 1177.81 134.25 1179.12 135.188C1180.69 136.312 1181.88 137.156 1182.69 137.719C1183.44 138.156 1184.47 138.844 1185.78 139.781C1186.91 140.594 1188.41 141.688 1190.28 143.062C1192.22 144.438 1194.69 146.188 1197.69 148.312C1194.5 150.688 1191.78 152.75 1189.53 154.5C1187.28 156.25 1185.41 157.688 1183.91 158.812C1182.16 160.125 1180.66 161.219 1179.41 162.094C1178.22 162.969 1176.94 163.969 1175.56 165.094C1174.38 166.094 1173 167.281 1171.44 168.656C1169.88 170.031 1168.19 171.562 1166.38 173.25C1166.31 170.062 1166.28 167.594 1166.28 165.844C1166.28 164.094 1166.28 162.781 1166.28 161.906C1166.28 160.906 1166.31 160.312 1166.38 160.125C1166.44 160 1166.91 159.75 1167.78 159.375C1168.72 158.938 1169.78 158.438 1170.97 157.875C1172.22 157.312 1173.5 156.688 1174.81 156C1176.19 155.312 1177.38 154.656 1178.38 154.031C1179.19 153.531 1180.03 153 1180.91 152.438C1181.66 151.938 1182.5 151.375 1183.44 150.75C1184.38 150.125 1185.38 149.438 1186.44 148.688C1185.5 148.062 1184.47 147.406 1183.34 146.719C1182.28 146.031 1181.28 145.406 1180.34 144.844L1177.06 142.875C1176 142.25 1174.84 141.625 1173.59 141C1172.53 140.5 1171.28 139.969 1169.84 139.406C1168.47 138.781 1167.06 138.219 1165.62 137.719V124.875Z" fill="#FF2E63" fill-opacity="0.2"/>
<path d="M933.062 389.875V402.719C931.562 403.219 930.125 403.781 928.75 404.406C927.375 404.969 926.156 405.5 925.094 406C923.844 406.625 922.688 407.25 921.625 407.875L918.344 409.844C917.406 410.406 916.375 411.031 915.25 411.719C914.125 412.406 913.094 413.062 912.156 413.688C913.219 414.438 914.219 415.125 915.156 415.75C916.156 416.375 917.031 416.938 917.781 417.438C918.656 418 919.5 418.531 920.312 419.031C921.312 419.656 922.469 420.312 923.781 421C925.156 421.688 926.438 422.312 927.625 422.875C928.875 423.438 929.938 423.938 930.812 424.375C931.688 424.75 932.156 425 932.219 425.125C932.281 425.312 932.312 425.906 932.312 426.906C932.312 427.781 932.312 429.094 932.312 430.844C932.312 432.594 932.281 435.062 932.219 438.25C930.406 436.562 928.719 435.031 927.156 433.656C925.656 432.281 924.312 431.094 923.125 430.094C921.75 428.969 920.469 427.969 919.281 427.094C918.031 426.219 916.531 425.125 914.781 423.812C913.281 422.688 911.375 421.25 909.062 419.5C906.812 417.75 904.125 415.688 901 413.312C903.938 411.188 906.375 409.438 908.312 408.062C910.25 406.688 911.781 405.594 912.906 404.781C914.219 403.844 915.25 403.156 916 402.719C916.812 402.156 918 401.312 919.562 400.188C920.875 399.25 922.594 397.969 924.719 396.344C926.906 394.656 929.688 392.5 933.062 389.875ZM971.125 371.125H978.156C978.656 371.125 979.188 371.156 979.75 371.219C980.25 371.281 980.781 371.344 981.344 371.406C981.969 371.406 982.625 371.469 983.312 371.594C980.312 376.781 977.781 381.312 975.719 385.188C973.656 389.062 971.938 392.312 970.562 394.938C968.938 398 967.594 400.594 966.531 402.719C965.406 404.969 964.031 407.906 962.406 411.531C960.969 414.656 959.125 418.688 956.875 423.625C954.688 428.562 952 434.594 948.812 441.719C948.312 441.719 947.781 441.75 947.219 441.812C946.656 441.812 946.125 441.844 945.625 441.906C945 441.969 944.406 442 943.844 442C943.219 442 942.562 442.062 941.875 442.188C941.25 442.312 940.562 442.438 939.812 442.562C939.062 442.688 938.25 442.875 937.375 443.125C940.75 436.688 943.531 431.375 945.719 427.188C947.906 423 949.625 419.594 950.875 416.969C952.375 413.969 953.531 411.594 954.344 409.844C955.656 407.031 957.156 403.688 958.844 399.812C960.281 396.5 962.031 392.469 964.094 387.719C966.156 382.906 968.5 377.375 971.125 371.125ZM987.625 389.875C990.938 392.5 993.688 394.656 995.875 396.344C998.062 397.969 999.812 399.25 1001.12 400.188C1002.69 401.312 1003.88 402.156 1004.69 402.719C1005.44 403.156 1006.47 403.844 1007.78 404.781C1008.91 405.594 1010.41 406.688 1012.28 408.062C1014.22 409.438 1016.69 411.188 1019.69 413.312C1016.5 415.688 1013.78 417.75 1011.53 419.5C1009.28 421.25 1007.41 422.688 1005.91 423.812C1004.16 425.125 1002.66 426.219 1001.41 427.094C1000.22 427.969 998.938 428.969 997.562 430.094C996.375 431.094 995 432.281 993.438 433.656C991.875 435.031 990.188 436.562 988.375 438.25C988.312 435.062 988.281 432.594 988.281 430.844C988.281 429.094 988.281 427.781 988.281 426.906C988.281 425.906 988.312 425.312 988.375 425.125C988.438 425 988.906 424.75 989.781 424.375C990.719 423.938 991.781 423.438 992.969 422.875C994.219 422.312 995.5 421.688 996.812 421C998.188 420.312 999.375 419.656 1000.38 419.031C1001.19 418.531 1002.03 418 1002.91 417.438C1003.66 416.938 1004.5 416.375 1005.44 415.75C1006.38 415.125 1007.38 414.438 1008.44 413.688C1007.5 413.062 1006.47 412.406 1005.34 411.719C1004.28 411.031 1003.28 410.406 1002.34 409.844L999.062 407.875C998 407.25 996.844 406.625 995.594 406C994.531 405.5 993.281 404.969 991.844 404.406C990.469 403.781 989.062 403.219 987.625 402.719V389.875Z" fill="#FF2E63" fill-opacity="0.2"/>
<path d="M1494.06 105.875V118.719C1492.56 119.219 1491.12 119.781 1489.75 120.406C1488.38 120.969 1487.16 121.5 1486.09 122C1484.84 122.625 1483.69 123.25 1482.62 123.875L1479.34 125.844C1478.41 126.406 1477.38 127.031 1476.25 127.719C1475.12 128.406 1474.09 129.062 1473.16 129.688C1474.22 130.438 1475.22 131.125 1476.16 131.75C1477.16 132.375 1478.03 132.938 1478.78 133.438C1479.66 134 1480.5 134.531 1481.31 135.031C1482.31 135.656 1483.47 136.312 1484.78 137C1486.16 137.688 1487.44 138.312 1488.62 138.875C1489.88 139.438 1490.94 139.938 1491.81 140.375C1492.69 140.75 1493.16 141 1493.22 141.125C1493.28 141.312 1493.31 141.906 1493.31 142.906C1493.31 143.781 1493.31 145.094 1493.31 146.844C1493.31 148.594 1493.28 151.062 1493.22 154.25C1491.41 152.562 1489.72 151.031 1488.16 149.656C1486.66 148.281 1485.31 147.094 1484.12 146.094C1482.75 144.969 1481.47 143.969 1480.28 143.094C1479.03 142.219 1477.53 141.125 1475.78 139.812C1474.28 138.688 1472.38 137.25 1470.06 135.5C1467.81 133.75 1465.12 131.688 1462 129.312C1464.94 127.188 1467.38 125.438 1469.31 124.062C1471.25 122.688 1472.78 121.594 1473.91 120.781C1475.22 119.844 1476.25 119.156 1477 118.719C1477.81 118.156 1479 117.312 1480.56 116.188C1481.88 115.25 1483.59 113.969 1485.72 112.344C1487.91 110.656 1490.69 108.5 1494.06 105.875ZM1532.12 87.125H1539.16C1539.66 87.125 1540.19 87.1562 1540.75 87.2188C1541.25 87.2812 1541.78 87.3438 1542.34 87.4062C1542.97 87.4062 1543.62 87.4688 1544.31 87.5938C1541.31 92.7812 1538.78 97.3125 1536.72 101.188C1534.66 105.062 1532.94 108.312 1531.56 110.938C1529.94 114 1528.59 116.594 1527.53 118.719C1526.41 120.969 1525.03 123.906 1523.41 127.531C1521.97 130.656 1520.12 134.688 1517.88 139.625C1515.69 144.562 1513 150.594 1509.81 157.719C1509.31 157.719 1508.78 157.75 1508.22 157.812C1507.66 157.812 1507.12 157.844 1506.62 157.906C1506 157.969 1505.41 158 1504.84 158C1504.22 158 1503.56 158.062 1502.88 158.188C1502.25 158.312 1501.56 158.438 1500.81 158.562C1500.06 158.688 1499.25 158.875 1498.38 159.125C1501.75 152.688 1504.53 147.375 1506.72 143.188C1508.91 139 1510.62 135.594 1511.88 132.969C1513.38 129.969 1514.53 127.594 1515.34 125.844C1516.66 123.031 1518.16 119.688 1519.84 115.812C1521.28 112.5 1523.03 108.469 1525.09 103.719C1527.16 98.9062 1529.5 93.375 1532.12 87.125ZM1548.62 105.875C1551.94 108.5 1554.69 110.656 1556.88 112.344C1559.06 113.969 1560.81 115.25 1562.12 116.188C1563.69 117.312 1564.88 118.156 1565.69 118.719C1566.44 119.156 1567.47 119.844 1568.78 120.781C1569.91 121.594 1571.41 122.688 1573.28 124.062C1575.22 125.438 1577.69 127.188 1580.69 129.312C1577.5 131.688 1574.78 133.75 1572.53 135.5C1570.28 137.25 1568.41 138.688 1566.91 139.812C1565.16 141.125 1563.66 142.219 1562.41 143.094C1561.22 143.969 1559.94 144.969 1558.56 146.094C1557.38 147.094 1556 148.281 1554.44 149.656C1552.88 151.031 1551.19 152.562 1549.38 154.25C1549.31 151.062 1549.28 148.594 1549.28 146.844C1549.28 145.094 1549.28 143.781 1549.28 142.906C1549.28 141.906 1549.31 141.312 1549.38 141.125C1549.44 141 1549.91 140.75 1550.78 140.375C1551.72 139.938 1552.78 139.438 1553.97 138.875C1555.22 138.312 1556.5 137.688 1557.81 137C1559.19 136.312 1560.38 135.656 1561.38 135.031C1562.19 134.531 1563.03 134 1563.91 133.438C1564.66 132.938 1565.5 132.375 1566.44 131.75C1567.38 131.125 1568.38 130.438 1569.44 129.688C1568.5 129.062 1567.47 128.406 1566.34 127.719C1565.28 127.031 1564.28 126.406 1563.34 125.844L1560.06 123.875C1559 123.25 1557.84 122.625 1556.59 122C1555.53 121.5 1554.28 120.969 1552.84 120.406C1551.47 119.781 1550.06 119.219 1548.62 118.719V105.875Z" fill="#FF2E63" fill-opacity="0.2"/>
</svg>
