<svg width="167" height="27" viewBox="0 0 167 27" fill="none" xmlns="http://www.w3.org/2000/svg">
<path d="M8.96 20.024C8.96 20.92 8.68267 21.6453 8.128 22.2C7.57333 22.7333 6.848 23 5.952 23H3.648C2.752 23 2.02667 22.7333 1.472 22.2C0.917333 21.6453 0.64 20.92 0.64 20.024V3.576C0.64 2.68 0.917333 1.96533 1.472 1.432C2.02667 0.877332 2.752 0.599998 3.648 0.599998H5.952C6.848 0.599998 7.57333 0.877332 8.128 1.432C8.68267 1.96533 8.96 2.68 8.96 3.576V8.696H5.92V3.736C5.92 3.62933 5.86667 3.576 5.76 3.576H3.84C3.73333 3.576 3.68 3.62933 3.68 3.736V19.864C3.68 19.9707 3.73333 20.024 3.84 20.024H5.76C5.86667 20.024 5.92 19.9707 5.92 19.864V13.24H4.672L4.928 10.264H8.96V20.024ZM15.5778 20.024V7H18.6178V20.024H19.0978L19.4178 23H15.5778V21.752L14.7778 23H13.9138C12.9324 23 12.1431 22.7227 11.5458 22.168C10.9698 21.592 10.6818 20.8773 10.6818 20.024V9.976H9.91375L10.2338 7H13.7218V19.864C13.7218 19.9707 13.7751 20.024 13.8818 20.024H15.5778ZM23.0825 2.744L23.4025 5.72H20.3625V2.744H23.0825ZM23.4025 7V23H20.3625V9.976H19.8825L20.2025 7H23.4025ZM28.0312 0.599998L28.0633 20.024H28.8633L29.1833 23H25.0233L24.9913 3.576H24.3513L24.6713 0.599998H28.0312ZM30.2755 23V3.576H29.5075L29.8275 0.599998H33.3155V8.248L34.1155 7H34.9795C35.9608 7 36.7395 7.27733 37.3155 7.832C37.9128 8.38667 38.2115 9.10133 38.2115 9.976V20.024H38.9795L38.6595 23H35.1715V10.136C35.1715 10.0293 35.1182 9.976 35.0115 9.976H33.3155V23H30.2755ZM39.7963 20.152V9.848C39.7963 8.952 40.0736 8.23733 40.6283 7.704C41.1829 7.14933 41.9083 6.872 42.8043 6.872H44.7883C45.6843 6.872 46.4096 7.14933 46.9643 7.704C47.5189 8.23733 47.7963 8.952 47.7963 9.848V13.784H44.7563V10.008C44.7563 9.90133 44.7029 9.848 44.5963 9.848H42.9963C42.8896 9.848 42.8363 9.90133 42.8363 10.008V13.784H47.7963V16.76H42.8363V19.992C42.8363 20.0987 42.8896 20.152 42.9963 20.152H44.5963C44.7029 20.152 44.7563 20.1093 44.7563 20.024V18.264H47.7963V20.152C47.7963 21.048 47.5189 21.7733 46.9643 22.328C46.4096 22.8613 45.6843 23.128 44.7883 23.128H42.8043C41.9083 23.128 41.1829 22.8613 40.6283 22.328C40.0736 21.7733 39.7963 21.048 39.7963 20.152ZM52.7218 7V8.408L53.5858 7H55.7298V10.104H52.7218V23H49.6818V9.976H48.9138L49.2338 7H52.7218ZM65.399 23H62.359V10.136C62.359 10.0293 62.3057 9.976 62.199 9.976H60.503V23H57.463V9.976H56.695L57.015 7H60.503V8.248L61.303 7H62.167C62.871 7 63.479 7.14933 63.991 7.448C64.503 7.74667 64.8763 8.152 65.111 8.664L66.199 7H67.063C68.0443 7 68.823 7.27733 69.399 7.832C69.9963 8.38667 70.295 9.10133 70.295 9.976V20.024H71.063L70.743 23H67.255V10.136C67.255 10.0293 67.2017 9.976 67.095 9.976H65.399V23ZM72.015 20.152V9.848C72.015 8.952 72.2923 8.23733 72.847 7.704C73.4017 7.14933 74.127 6.872 75.023 6.872H77.007C77.903 6.872 78.6283 7.14933 79.183 7.704C79.7377 8.23733 80.015 8.952 80.015 9.848V13.784H76.975V10.008C76.975 9.90133 76.9217 9.848 76.815 9.848H75.215C75.1083 9.848 75.055 9.90133 75.055 10.008V13.784H80.015V16.76H75.055V19.992C75.055 20.0987 75.1083 20.152 75.215 20.152H76.815C76.9217 20.152 76.975 20.1093 76.975 20.024V18.264H80.015V20.152C80.015 21.048 79.7377 21.7733 79.183 22.328C78.6283 22.8613 77.903 23.128 77.007 23.128H75.023C74.127 23.128 73.4017 22.8613 72.847 22.328C72.2923 21.7733 72.015 21.048 72.015 20.152Z" fill="#EAEAEA"/>
<path d="M95.3663 20.024C95.3663 20.92 95.0889 21.6453 94.5343 22.2C93.9796 22.7333 93.2543 23 92.3583 23H90.0543C89.1583 23 88.4329 22.7333 87.8783 22.2C87.3236 21.6453 87.0463 20.92 87.0463 20.024V3.576C87.0463 2.68 87.3236 1.96533 87.8783 1.432C88.4329 0.877332 89.1583 0.599998 90.0543 0.599998H92.3583C93.2543 0.599998 93.9796 0.877332 94.5343 1.432C95.0889 1.96533 95.3663 2.68 95.3663 3.576V8.696H92.3263V3.736C92.3263 3.62933 92.2729 3.576 92.1663 3.576H90.2463C90.1396 3.576 90.0863 3.62933 90.0863 3.736V19.864C90.0863 19.9707 90.1396 20.024 90.2463 20.024H92.1663C92.2729 20.024 92.3263 19.9707 92.3263 19.864V13.24H91.0783L91.3343 10.264H95.3663V20.024ZM101.92 10.008C101.92 9.90133 101.867 9.848 101.76 9.848H99.84C99.7333 9.848 99.68 9.90133 99.68 10.008V19.992C99.68 20.0987 99.7333 20.152 99.84 20.152H101.76C101.867 20.152 101.92 20.1093 101.92 20.024V10.008ZM96.64 20.152V9.848C96.64 8.952 96.9173 8.23733 97.472 7.704C98.0267 7.14933 98.752 6.872 99.648 6.872H101.952C102.848 6.872 103.573 7.14933 104.128 7.704C104.683 8.23733 104.96 8.952 104.96 9.848V20.152C104.96 21.048 104.683 21.7733 104.128 22.328C103.573 22.8613 102.848 23.128 101.952 23.128H99.648C98.752 23.128 98.0267 22.8613 97.472 22.328C96.9173 21.7733 96.64 21.048 96.64 20.152ZM106.682 23V9.976H105.914L106.234 7H109.722V8.248L110.522 7H111.386C112.367 7 113.146 7.27733 113.722 7.832C114.319 8.38667 114.618 9.10133 114.618 9.976V20.024H115.418L115.098 23H111.578V10.136C111.578 10.0293 111.524 9.976 111.418 9.976H109.722V23H106.682ZM116.078 20.152V9.848C116.078 8.952 116.355 8.23733 116.91 7.704C117.464 7.14933 118.19 6.872 119.086 6.872H121.39C122.286 6.872 123.011 7.14933 123.566 7.704C124.12 8.23733 124.398 8.952 124.398 9.848V14.072L121.358 13.752V10.008C121.358 9.90133 121.304 9.848 121.198 9.848H119.278C119.171 9.848 119.118 9.90133 119.118 10.008V19.992C119.118 20.0987 119.171 20.152 119.278 20.152H121.198C121.304 20.152 121.358 20.1093 121.358 20.024V16.312H124.398V20.152C124.398 21.048 124.12 21.7733 123.566 22.328C123.011 22.8613 122.286 23.128 121.39 23.128H119.086C118.19 23.128 117.464 22.8613 116.91 22.328C116.355 21.7733 116.078 21.048 116.078 20.152ZM120.622 22.648V23.608H120.686C121.518 23.608 121.934 23.8747 121.934 24.408V25.688C121.934 25.88 121.795 26.04 121.518 26.168C121.262 26.3173 120.931 26.392 120.526 26.392H118.542V24.792H119.918V25.688H120.526V24.408H120.494C120.131 24.408 119.822 24.3227 119.566 24.152C119.331 23.9813 119.214 23.8 119.214 23.608V22.648H120.622ZM128.903 23C127.922 23 127.133 22.7227 126.535 22.168C125.959 21.592 125.671 20.8773 125.671 20.024V9.976C125.671 9.10133 125.959 8.38667 126.535 7.832C127.133 7.27733 127.922 7 128.903 7H129.031C129.607 7 130.119 7.13867 130.567 7.416V7H133.607V20.024H134.055L134.375 23H130.567V21.752L129.767 23H128.903ZM128.871 9.976C128.765 9.976 128.711 10.0293 128.711 10.136V19.864C128.711 19.9707 128.765 20.024 128.871 20.024H130.567V9.976H128.871ZM138.531 0.599998L138.563 20.024H139.363L139.683 23H135.523L135.491 3.576H134.851L135.171 0.599998H138.531ZM139.695 7H142.511L144.303 17.336L146.095 7H148.911L145.839 23H142.767L139.695 7ZM149.703 20.152V9.848C149.703 8.952 149.98 8.23733 150.535 7.704C151.089 7.14933 151.815 6.872 152.711 6.872H154.695C155.591 6.872 156.316 7.14933 156.871 7.704C157.425 8.23733 157.703 8.952 157.703 9.848V13.784H154.663V10.008C154.663 9.90133 154.609 9.848 154.503 9.848H152.903C152.796 9.848 152.743 9.90133 152.743 10.008V13.784H157.703V16.76H152.743V19.992C152.743 20.0987 152.796 20.152 152.903 20.152H154.503C154.609 20.152 154.663 20.1093 154.663 20.024V18.264H157.703V20.152C157.703 21.048 157.425 21.7733 156.871 22.328C156.316 22.8613 155.591 23.128 154.695 23.128H152.711C151.815 23.128 151.089 22.8613 150.535 22.328C149.98 21.7733 149.703 21.048 149.703 20.152ZM158.984 17.976L162.024 18.296V19.864C162.024 19.9707 162.077 20.024 162.184 20.024H163.464C163.57 20.024 163.624 19.9707 163.624 19.864V16.888L160.776 15.672C160.434 15.5227 160.05 15.288 159.624 14.968C159.197 14.648 158.984 14.1253 158.984 13.4V9.848C158.984 8.952 159.261 8.23733 159.816 7.704C160.37 7.14933 161.096 6.872 161.992 6.872H163.656C164.552 6.872 165.277 7.14933 165.832 7.704C166.386 8.23733 166.664 8.952 166.664 9.848V11.896L163.624 11.576V10.008C163.624 9.90133 163.57 9.848 163.464 9.848H162.184C162.077 9.848 162.024 9.90133 162.024 10.008V12.984L164.872 14.2C165.213 14.3493 165.597 14.584 166.024 14.904C166.45 15.224 166.664 15.7467 166.664 16.472V20.024C166.664 20.92 166.386 21.6453 165.832 22.2C165.277 22.7333 164.552 23 163.656 23H161.992C161.096 23 160.37 22.7333 159.816 22.2C159.261 21.6453 158.984 20.92 158.984 20.024V17.976Z" fill="#FF2E63"/>
</svg>
