<svg width="287" height="70" viewBox="0 0 287 70" fill="none" xmlns="http://www.w3.org/2000/svg">
<path d="M5.328 69C4.048 69 2.96 68.616 2.064 67.848C1.168 67.016 0.72 65.992 0.72 64.776V6.024C0.72 4.808 1.136 3.816 1.968 3.048C2.864 2.216 3.984 1.8 5.328 1.8H27.792C33.232 1.8 38.032 2.824 42.192 4.872C46.352 6.92 49.584 9.8 51.888 13.512C54.256 17.16 55.44 21.352 55.44 26.088V44.52C55.44 49.256 54.256 53.48 51.888 57.192C49.584 60.904 46.32 63.816 42.096 65.928C37.936 67.976 33.168 69 27.792 69H5.328ZM26.832 61.128C32.976 61.128 37.776 59.688 41.232 56.808C44.688 53.864 46.416 49.8 46.416 44.616V25.992C46.416 20.872 44.688 16.872 41.232 13.992C37.776 11.112 32.976 9.672 26.832 9.672H9.744V61.128H26.832ZM87.2348 69.864C83.3308 69.864 79.8428 69.128 76.7708 67.656C73.6988 66.12 71.2988 64.04 69.5708 61.416C67.8428 58.728 66.9788 55.72 66.9788 52.392V38.184C66.9788 34.792 67.8748 31.72 69.6668 28.968C71.5228 26.216 73.9868 24.072 77.0588 22.536C80.1948 20.936 83.5868 20.136 87.2348 20.136C90.8828 20.136 94.2108 20.904 97.2188 22.44C100.291 23.976 102.691 26.088 104.419 28.776C106.211 31.464 107.107 34.504 107.107 37.896V44.04C107.107 45.064 106.723 45.928 105.955 46.632C105.187 47.336 104.259 47.688 103.171 47.688H75.1388V52.008C75.1388 55.272 76.1628 57.896 78.2108 59.88C80.3228 61.864 83.3308 62.856 87.2348 62.856C91.1388 62.856 94.1148 61.992 96.1628 60.264C98.2108 58.536 99.2348 56.2 99.2348 53.256C101.155 53.128 102.755 53.512 104.035 54.408C105.379 55.24 106.051 56.488 106.051 58.152C106.051 60.2 105.155 62.12 103.363 63.912C101.635 65.704 99.3308 67.144 96.4508 68.232C93.5708 69.32 90.4988 69.864 87.2348 69.864ZM99.3308 41.16V37.896C99.3308 34.696 98.2108 32.104 95.9708 30.12C93.7948 28.072 90.8828 27.048 87.2348 27.048C83.5868 27.048 80.6428 28.072 78.4028 30.12C76.2268 32.104 75.1388 34.696 75.1388 37.896V41.16H99.3308ZM134.132 69.864C133.172 69.864 132.308 69.608 131.54 69.096C130.772 68.584 130.228 67.944 129.908 67.176L111.476 20.808C111.86 20.616 112.404 20.456 113.108 20.328C113.812 20.2 114.452 20.136 115.028 20.136C116.436 20.136 117.684 20.456 118.772 21.096C119.86 21.736 120.596 22.664 120.98 23.88L133.652 58.344L132.308 62.184L132.788 62.376L147.188 23.88C147.572 22.664 148.308 21.736 149.396 21.096C150.484 20.456 151.7 20.136 153.044 20.136C153.62 20.136 154.26 20.2 154.964 20.328C155.668 20.456 156.244 20.616 156.692 20.808L138.26 67.176C137.94 67.944 137.396 68.584 136.628 69.096C135.924 69.608 135.092 69.864 134.132 69.864Z" fill="#EAEAEA"/>
<path d="M194.665 69.864C189.225 69.864 184.393 68.872 180.169 66.888C175.945 64.84 172.649 62.024 170.281 58.44C167.913 54.792 166.729 50.664 166.729 46.056V24.552C166.729 19.944 167.881 15.848 170.185 12.264C172.553 8.68 175.817 5.896 179.977 3.912C184.137 1.928 188.905 0.935995 194.281 0.935995C199.657 0.935995 204.425 1.8 208.585 3.528C212.745 5.192 215.977 7.528 218.281 10.536C220.649 13.544 221.833 16.968 221.833 20.808C221.833 22.728 221.193 24.232 219.913 25.32C218.633 26.408 216.937 26.952 214.825 26.952C214.377 26.952 213.705 26.888 212.809 26.76C212.937 25.992 213.001 24.776 213.001 23.112C213.001 20.36 212.201 17.896 210.601 15.72C209.065 13.544 206.857 11.848 203.977 10.632C201.161 9.416 197.929 8.808 194.281 8.808C190.697 8.808 187.497 9.48 184.681 10.824C181.865 12.104 179.657 13.96 178.057 16.392C176.521 18.76 175.753 21.48 175.753 24.552V46.056C175.753 49.128 176.553 51.88 178.153 54.312C179.753 56.744 181.993 58.632 184.873 59.976C187.753 61.32 191.017 61.992 194.665 61.992C198.249 61.992 201.449 61.384 204.265 60.168C207.145 58.952 209.353 57.224 210.889 54.984C212.489 52.744 213.289 50.216 213.289 47.4V42.024H201.193C199.209 42.024 197.609 41.352 196.393 40.008C195.177 38.6 194.569 36.776 194.569 34.536H217.993C219.273 34.536 220.297 34.92 221.065 35.688C221.897 36.456 222.313 37.48 222.313 38.76V47.496C222.313 51.848 221.129 55.72 218.761 59.112C216.457 62.504 213.193 65.16 208.969 67.08C204.809 68.936 200.041 69.864 194.665 69.864ZM258.884 69.864C253.444 69.864 248.612 68.872 244.388 66.888C240.164 64.84 236.868 62.024 234.5 58.44C232.132 54.792 230.948 50.664 230.948 46.056V24.552C230.948 19.944 232.1 15.848 234.404 12.264C236.772 8.68 240.036 5.896 244.196 3.912C248.356 1.928 253.124 0.935995 258.5 0.935995C263.876 0.935995 268.644 1.8 272.804 3.528C276.964 5.192 280.196 7.528 282.5 10.536C284.868 13.544 286.052 16.968 286.052 20.808C286.052 22.728 285.412 24.232 284.132 25.32C282.852 26.408 281.156 26.952 279.044 26.952C278.596 26.952 277.924 26.888 277.028 26.76C277.156 25.992 277.22 24.776 277.22 23.112C277.22 20.36 276.42 17.896 274.82 15.72C273.284 13.544 271.076 11.848 268.196 10.632C265.38 9.416 262.148 8.808 258.5 8.808C254.916 8.808 251.716 9.48 248.9 10.824C246.084 12.104 243.876 13.96 242.276 16.392C240.74 18.76 239.972 21.48 239.972 24.552V46.056C239.972 49.128 240.772 51.88 242.372 54.312C243.972 56.744 246.212 58.632 249.092 59.976C251.972 61.32 255.236 61.992 258.884 61.992C262.468 61.992 265.668 61.384 268.484 60.168C271.364 58.952 273.572 57.224 275.108 54.984C276.708 52.744 277.508 50.216 277.508 47.4V42.024H265.412C263.428 42.024 261.828 41.352 260.612 40.008C259.396 38.6 258.788 36.776 258.788 34.536H282.212C283.492 34.536 284.516 34.92 285.284 35.688C286.116 36.456 286.532 37.48 286.532 38.76V47.496C286.532 51.848 285.348 55.72 282.98 59.112C280.676 62.504 277.412 65.16 273.188 67.08C269.028 68.936 264.26 69.864 258.884 69.864Z" fill="#FF2E63"/>
</svg>
